<?xml version="1.0" standalone="no"?>
<!DOCTYPE svg PUBLIC "-//W3C//DTD SVG 1.1//EN" "http://www.w3.org/Graphics/SVG/1.1/DTD/svg11.dtd" >
<svg xmlns="http://www.w3.org/2000/svg">
<metadata></metadata>
<defs>
<font id="daxmedium" horiz-adv-x="1118" >
<font-face units-per-em="2048" ascent="1608" descent="-440" />
<missing-glyph horiz-adv-x="557" />
<glyph horiz-adv-x="0" />
<glyph unicode="&#xd;" horiz-adv-x="557" />
<glyph unicode=" "  horiz-adv-x="557" />
<glyph unicode="&#x09;" horiz-adv-x="557" />
<glyph unicode="&#xa0;" horiz-adv-x="557" />
<glyph unicode="!" horiz-adv-x="636" d="M190 137q0 -63 43 -107t107 -44q61 0 105 44t44 107q0 61 -44 105.5t-105 44.5q-63 0 -106.5 -44t-43.5 -106zM190 1409l54 -926h190l53 926h-297z" />
<glyph unicode="&#x22;" horiz-adv-x="845" d="M129 1374l47 -543h129l49 543q-43 55 -112 56q-74 0 -113 -56zM492 1376l47 -545h129l49 545q-43 53 -113 54q-70 0 -112 -54z" />
<glyph unicode="#" d="M66 455h192l-78 -455h139l82 455h220l-78 -455h141l78 455h217v123h-197l54 288h217v125h-197l74 418h-142l-71 -420h-223l73 420h-141l-74 -420h-215v-123h195l-51 -288h-215v-123zM422 578l51 288h221l-53 -288h-219z" />
<glyph unicode="$" d="M156 61q53 -35 125.5 -53t185.5 -22l-21 -252h152l-23 258q164 27 263.5 139.5t99.5 278.5q0 125 -68.5 226t-240.5 175q-47 20 -88 41.5t-70 49.5t-45 63.5t-16 85.5q0 96 56 153.5t152 57.5q66 0 121.5 -18.5t91.5 -41.5l54 148q-43 29 -107.5 49t-152.5 24l20 238 h-145l20 -242q-84 -10 -148.5 -47t-110.5 -90t-69.5 -121.5t-23.5 -144.5q0 -129 72.5 -224.5t214.5 -152.5q121 -47 173 -102.5t52 -141.5q0 -104 -61.5 -164.5t-165.5 -60.5q-78 0 -136.5 19.5t-99.5 43.5z" />
<glyph unicode="%" horiz-adv-x="1783" d="M129 946q0 -80 11.5 -166t44 -155.5t89 -114.5t148.5 -45t149.5 45t89 114.5t44 155.5t12.5 166q0 82 -12.5 167t-44 155.5t-89 116t-149.5 45.5t-148.5 -45.5t-89 -116t-44 -155.5t-11.5 -167zM293 952q0 63 4 130t17.5 120t39 87t68.5 34q45 0 70.5 -34t39 -87 t17.5 -120t4 -130q0 -66 -4 -130t-17.5 -116.5t-39 -85t-70.5 -32.5q-43 0 -68.5 32.5t-39 85t-17.5 117t-4 129.5zM588 14l125 -32l479 1411l-125 32zM1067 463q0 -82 11.5 -167t44 -155.5t89 -115.5t148.5 -45t149.5 45t89 115.5t44 155.5t12.5 167q0 80 -12.5 166 t-44 156.5t-89 115.5t-149.5 45t-148.5 -45t-89 -115.5t-44 -156.5t-11.5 -166zM1231 469q0 63 4 129t17.5 119t39 87t68.5 34q45 0 70.5 -34t39 -87t17.5 -119t4 -129q0 -66 -4 -130.5t-17.5 -117.5t-39 -86t-70.5 -33q-43 0 -68.5 33t-39 86t-17.5 117.5t-4 130.5z" />
<glyph unicode="&#x26;" horiz-adv-x="1298" d="M96 389q0 -197 147.5 -303t399.5 -106q147 0 249.5 22.5t162.5 58.5v750q55 14 119.5 38t105.5 42l-74 153q-123 -66 -263 -112.5t-269 -46.5q-100 0 -169 50t-69 142q0 84 50.5 132t158.5 48q59 0 109.5 -15t85.5 -36l73 146q-49 31 -133 54.5t-186 23.5q-94 0 -169 -25 t-128 -69t-82 -104.5t-29 -131.5q0 -111 64.5 -187.5t185.5 -117.5v-4q-72 -23 -133 -59t-107 -86t-73 -114.5t-27 -142.5zM365 403q0 76 26.5 132.5t81.5 97.5t139 72.5t199 58.5v-600q-55 -25 -156 -25q-150 0 -220 70t-70 194z" />
<glyph unicode="'" horiz-adv-x="485" d="M129 1374l49 -543h127l51 543q-43 55 -114 56q-74 0 -113 -56z" />
<glyph unicode="(" horiz-adv-x="780" d="M125 586q0 -133 27.5 -260t86 -255t148.5 -261.5t217 -274.5l119 68q-152 213 -243 456.5t-91 526.5q0 281 91 524.5t243 454.5l-121 69q-125 -141 -215 -273t-148.5 -260t-86 -256t-27.5 -259z" />
<glyph unicode=")" horiz-adv-x="780" d="M57 -397l119 -68q125 141 216 274.5t149.5 261.5t86 255t27.5 260q0 131 -27.5 259t-86 256t-149.5 260t-216 273l-119 -69q150 -211 242 -455t92 -524q0 -283 -92 -526.5t-242 -456.5z" />
<glyph unicode="*" horiz-adv-x="905" d="M100 1368q0 -43 29 -71.5t70 -28.5t70.5 28.5t29.5 71.5q0 41 -28.5 70.5t-69.5 29.5t-71 -29.5t-30 -70.5zM186 1073q0 -41 30 -70.5t71 -29.5t69.5 29.5t28.5 70.5q0 43 -28.5 73t-69.5 30t-71 -30t-30 -73zM354 1548q0 -41 29 -69.5t70 -28.5t69.5 28.5t28.5 69.5 q0 43 -28.5 73t-69.5 30t-70 -30t-29 -73zM371 1286q0 -35 23.5 -59.5t58.5 -24.5t58.5 23.5t23.5 60.5q0 35 -24 58.5t-58 23.5q-35 0 -58.5 -23.5t-23.5 -58.5zM516 1073q0 -41 28.5 -70.5t69.5 -29.5t71 28.5t30 71.5t-29 72t-70 29t-70.5 -29t-29.5 -72zM606 1366 q0 -43 29 -71.5t70 -28.5t70.5 28.5t29.5 71.5t-30 72.5t-70 29.5q-41 0 -70 -29.5t-29 -72.5z" />
<glyph unicode="+" d="M156 600h321v-342h164v342h322v164h-322v340h-164v-340h-321v-164z" />
<glyph unicode="," horiz-adv-x="577" d="M12 -346h148l297 549q-6 29 -30 50t-77 21q-55 0 -93 -20.5t-62 -50.5z" />
<glyph unicode="-" horiz-adv-x="716" d="M109 594h499v190h-499v-190z" />
<glyph unicode="." horiz-adv-x="542" d="M121 137q0 -61 44 -105t107 -44q61 0 105.5 44t44.5 105q0 63 -44 107.5t-106 44.5q-63 0 -107 -44t-44 -108z" />
<glyph unicode="/" horiz-adv-x="1171" d="M25 -393l155 -76l967 2025l-156 76z" />
<glyph unicode="0" d="M104 705q0 -119 19.5 -247t71 -234.5t139.5 -175t225 -68.5t225 68.5t139.5 175t71 234.5t19.5 247t-19.5 246.5t-71 234t-139.5 175.5t-225 69t-225 -69t-139.5 -175.5t-71 -234.5t-19.5 -246zM344 707q0 98 7 198.5t31 182t65.5 134t111.5 52.5t112 -52.5t65.5 -134 t30.5 -182t7 -198.5t-7 -197.5t-30.5 -180.5t-65.5 -132.5t-112 -51.5t-111.5 51.5t-65.5 132.5t-31 180t-7 198z" />
<glyph unicode="1" d="M162 1194l31 -150q49 4 99 12.5t96 19.5t85 24.5t66 27.5v-1128h254v1409h-179q-39 -63 -149.5 -126.5t-302.5 -88.5z" />
<glyph unicode="2" d="M72 0h891v207h-527l332 438q96 127 139 221.5t43 177.5q0 76 -27.5 147t-84 123t-143.5 84t-203 32q-135 0 -225.5 -24t-153.5 -56l61 -160q45 23 103.5 40t150.5 17q131 0 194.5 -59.5t63.5 -169.5q0 -31 -5 -63.5t-18.5 -69.5t-39 -82t-64.5 -103z" />
<glyph unicode="3" d="M78 57q66 -37 159 -57t228 -20q111 0 203 31.5t158.5 89t104.5 138.5t38 179q0 84 -25.5 146.5t-69 106.5t-96.5 72.5t-108 44.5l-2 5q35 12 76.5 37.5t78.5 62.5t62.5 88t25.5 117q0 78 -31.5 139t-89 104t-136.5 66t-173 23q-125 0 -218 -25t-148 -53l63 -156 q45 23 114.5 39t149.5 16q90 0 153.5 -43t63.5 -139q0 -106 -90 -173t-243 -81v-135q59 2 124.5 -7t121 -37t92 -80t36.5 -138q0 -121 -75.5 -186.5t-204.5 -65.5q-92 0 -162 18.5t-113 40.5z" />
<glyph unicode="4" d="M104 299h568v-299h235v299h109v141h-109v969h-243l-560 -956v-154zM268 440l305 527q47 84 75 141t30 57l-2 -61q-2 -60 -2 -146l-2 -518h-404z" />
<glyph unicode="5" d="M98 57q68 -39 161 -58t220 -19q113 0 206 33.5t159.5 93t103.5 139.5t37 172q0 98 -35 181t-108.5 139.5t-187 83t-269.5 14.5l29 366h522v207h-696l-70 -729q156 25 261.5 12.5t169 -50.5t90 -96.5t26.5 -127.5q0 -61 -23.5 -109.5t-61.5 -80t-88 -48t-104 -16.5 q-92 0 -161.5 19.5t-114.5 43.5z" />
<glyph unicode="6" d="M111 518q0 -115 26.5 -213t81.5 -170t141 -113.5t207 -41.5q109 0 193 34.5t140 94t86 140.5t30 173q0 117 -38 197.5t-101.5 133t-146.5 76t-171 23.5q-90 0 -166 -29q41 104 101.5 179t128 125.5t136 81t126.5 48.5l-64 164q-49 -10 -121.5 -36.5t-151.5 -74.5 t-157 -120t-140.5 -169t-101 -222t-38.5 -281zM342 512q0 53 3 94t13 88q23 10 61 19.5t91 9.5q135 0 202.5 -74t67.5 -215q0 -55 -11 -106.5t-35.5 -92t-64.5 -65.5t-98 -25q-61 0 -105 29t-71.5 78t-40 115.5t-12.5 144.5z" />
<glyph unicode="7" d="M121 1202h629l-533 -1202h307q18 76 51 184.5t78 236.5t100.5 269t114.5 283l185 436h-932v-207z" />
<glyph unicode="8" d="M104 342q0 -88 36 -155.5t98.5 -113.5t145.5 -69.5t175 -23.5q100 0 183 26.5t143.5 73.5t94.5 114.5t34 149.5q0 121 -70 212t-225 185q135 78 194.5 158t59.5 188q0 76 -32 139.5t-88 108.5t-132 70t-162 25t-161.5 -25t-132 -71t-88.5 -109.5t-32 -139.5 q0 -111 60.5 -190.5t193.5 -161.5q-156 -90 -225.5 -179t-69.5 -212zM324 348q0 43 9 80t33.5 72t69.5 70.5t117 76.5q74 -43 119 -79t69.5 -70.5t33.5 -71.5t9 -80q0 -92 -63.5 -150.5t-165.5 -58.5q-47 0 -89 15.5t-74 44t-50 66.5t-18 85zM360 1090q0 86 55.5 141 t147.5 55t148.5 -56.5t56.5 -142.5q0 -39 -9 -71.5t-33 -63t-62.5 -61.5t-98.5 -66q-59 37 -98 67t-62.5 60.5t-34 63.5t-10.5 74z" />
<glyph unicode="9" d="M102 979q0 -117 38 -198t101.5 -133t146.5 -75.5t171 -23.5q47 0 88 8t78 21q-41 -104 -101.5 -179t-128 -125.5t-136 -81t-126.5 -47.5l64 -165q49 10 122 36.5t151.5 75.5t156.5 120t140.5 168t101.5 222t39 281q0 113 -26 212t-81 170.5t-141 113.5t-205 42 q-109 0 -192.5 -34.5t-142 -94t-88.5 -140.5t-30 -173zM336 975q0 55 11 107.5t36 93.5t64.5 65.5t97.5 24.5q61 0 105 -29t72 -79t40 -117.5t12 -143.5q0 -49 -3 -93t-13 -87q-23 -10 -61 -20.5t-91 -10.5q-137 0 -203.5 74t-66.5 215z" />
<glyph unicode=":" horiz-adv-x="542" d="M121 137q0 -61 44 -105t107 -44q61 0 105.5 44t44.5 105q0 63 -44 107.5t-106 44.5q-63 0 -107 -44t-44 -108zM121 776q0 -63 44 -107t107 -44q61 0 105.5 44t44.5 107q0 61 -44 105.5t-106 44.5q-63 0 -107 -44t-44 -106z" />
<glyph unicode=";" horiz-adv-x="577" d="M12 -346h148l297 549q-4 29 -30 52.5t-79 23.5t-91 -21.5t-62 -54.5zM156 776q0 -63 44 -107t105 -44q63 0 107.5 44t44.5 107q0 61 -44 105.5t-108 44.5q-61 0 -105 -44t-44 -106z" />
<glyph unicode="&#x3c;" d="M156 610l807 -348v178l-609 246l609 246v178l-807 -348v-152z" />
<glyph unicode="=" d="M156 401h807v164h-807v-164zM156 797h807v164h-807v-164z" />
<glyph unicode="&#x3e;" d="M156 262l807 348v152l-807 348v-178l608 -246l-608 -246v-178z" />
<glyph unicode="?" horiz-adv-x="864" d="M80 1348l67 -148q33 16 86.5 33.5t122.5 17.5q117 0 168 -54t51 -134q0 -49 -24.5 -89t-64.5 -70t-89 -50t-100 -31l31 -340h188l23 265q43 14 95 41.5t97 69.5t76 98t31 128q0 156 -116 248t-319 92q-102 0 -184 -22.5t-139 -54.5zM274 137q0 -63 43 -106t107 -43 q61 0 105 43t44 106q0 61 -44 105.5t-105 44.5q-63 0 -106.5 -44t-43.5 -106z" />
<glyph unicode="@" horiz-adv-x="1779" d="M119 461q0 -176 56 -311.5t157.5 -228.5t244 -141t314.5 -48q127 0 231.5 21.5t193.5 62.5t166 100t148 135l-57 72q-66 -70 -135.5 -125t-151.5 -95t-178 -61.5t-215 -21.5q-145 0 -267 41t-210 121.5t-137.5 199.5t-49.5 275q0 170 60.5 329.5t169 284.5t257 200 t326.5 75q111 0 204 -35t160 -99.5t103.5 -156.5t36.5 -209q0 -88 -24.5 -193.5t-67.5 -198t-99.5 -153.5t-119.5 -61q-41 0 -57.5 27.5t-16.5 92.5q0 59 14.5 127t30.5 140l78 360h-125l-29 -137q-33 76 -87 124t-146 48q-102 0 -180 -56.5t-132.5 -140.5t-82 -182 t-27.5 -182q0 -63 14.5 -121.5t45 -104t79 -72t113.5 -26.5q98 0 173 42t136 134q10 -98 47 -139t109 -41q76 0 140.5 34t115.5 91t90 131t65.5 153t40 158.5t13.5 147.5q0 135 -45 243.5t-125 184.5t-190.5 116t-243.5 40q-197 0 -367 -79t-296 -212t-198.5 -309.5 t-72.5 -370.5zM612 463q0 59 17.5 138t54.5 149.5t92 120t131 49.5q72 0 125 -59.5t51 -168.5q-2 -57 -21.5 -135t-56 -147.5t-93 -117.5t-130.5 -48q-82 0 -126 63.5t-44 155.5z" />
<glyph unicode="A" horiz-adv-x="1226" d="M25 0h233l113 362h454l109 -362h268l-465 1409h-245zM412 514l151 496q25 78 32 124l7 46h4l8 -46q7 -47 29 -124l145 -496h-376z" />
<glyph unicode="B" horiz-adv-x="1189" d="M145 59q72 -39 177.5 -59t240.5 -20q121 0 220.5 23.5t170 73.5t109.5 127t39 181q0 76 -30 137.5t-76 106.5t-100 73.5t-103 38.5v4q45 10 91 34t84 64t62.5 95t24.5 127q0 78 -32 144.5t-95.5 115.5t-158.5 77t-222 28q-129 0 -232.5 -23t-169.5 -57v-1291zM391 166 v506l80 2h21q184 0 265 -67q85 -71 85 -218q0 -68 -21.5 -116t-59.5 -77.5t-90.5 -43t-115.5 -13.5q-53 0 -91 6.5t-73 20.5zM391 801v456q35 12 72 18.5t84 6.5q258 0 258 -233q0 -63 -17.5 -111.5t-56.5 -80.5t-103 -46q-56 -12 -134 -12h-23z" />
<glyph unicode="C" horiz-adv-x="993" d="M100 705q0 -147 34 -278.5t101.5 -231t169 -157.5t236.5 -58h5q188 0 288 79l-62 168q-37 -23 -76.5 -36t-101.5 -13q-86 0 -147.5 44t-100 118t-57 169t-18.5 198q0 100 16 197t54 172t100.5 121t152.5 46q63 0 107.5 -15.5t75.5 -33.5l57 156q-51 37 -122 58.5 t-169 21.5q-135 0 -236.5 -59.5t-169 -160t-102.5 -231.5t-35 -274z" />
<glyph unicode="D" horiz-adv-x="1241" d="M145 59q66 -37 167.5 -58t232.5 -21q160 0 272.5 56t185 154.5t105.5 232.5t33 292t-36 290t-109.5 226t-189.5 146.5t-276 52.5q-123 0 -219 -23t-166 -57v-1291zM403 180v1059q53 20 134 21q178 0 259 -132.5t81 -408.5q0 -289 -77 -424t-259 -135q-41 0 -78 6t-60 14z " />
<glyph unicode="E" horiz-adv-x="923" d="M145 0h686v174h-425v463h378v172h-378v426h425v174h-686v-1409z" />
<glyph unicode="F" horiz-adv-x="907" d="M145 0h261v637h376v172h-376v426h423v174h-684v-1409z" />
<glyph unicode="G" horiz-adv-x="1226" d="M100 713q0 -178 43 -314.5t123 -229.5t193.5 -141t255.5 -48q139 0 225 20t152 59v750h-449v-160h203v-463q-16 -10 -50 -18t-91 -8q-147 0 -243.5 136t-96.5 404q0 283 102 414t285 131q92 0 150.5 -16.5t92.5 -36.5l78 160q-59 35 -145 56.5t-207 21.5 q-137 0 -251 -49.5t-195.5 -141.5t-128 -225t-46.5 -301z" />
<glyph unicode="H" horiz-adv-x="1255" d="M145 0h261v637h444v-637h260v1409h-260v-600h-444v600h-261v-1409z" />
<glyph unicode="I" horiz-adv-x="561" d="M150 0h262v1409h-262v-1409z" />
<glyph unicode="J" horiz-adv-x="561" d="M-84 -268v-183q102 8 192.5 46t158 103.5t106.5 160t39 217.5v1333h-262v-1356q0 -70 -18.5 -124t-50.5 -95t-74 -66.5t-91 -35.5z" />
<glyph unicode="K" horiz-adv-x="1136" d="M150 0h260v713h4l403 -713h291l-465 758l440 651h-266l-403 -643h-4v643h-260v-1409z" />
<glyph unicode="L" horiz-adv-x="864" d="M150 0h651v174h-389v1235h-262v-1409z" />
<glyph unicode="M" horiz-adv-x="1617" d="M94 0h219q0 10 7.5 83t17.5 177.5t21.5 222t21.5 218t16 167.5l6 66q6 66 7 117v51h4l11 -52q11 -51 30 -116l19 -66q18 -67 46.5 -167.5t62 -218t63.5 -222t50.5 -177.5t24.5 -83h147q4 10 20.5 66.5t40 139.5t52.5 181t55.5 192.5t50 175.5t37 128t13.5 49 q20 68 31 119l10 51h4v-53q0 -51 6 -117l6 -66q6 -67 16.5 -167.5t21.5 -219.5t21.5 -222t17.5 -176t7 -81h246l-158 1409h-262l-260 -903q-20 -68 -28 -113l-9 -45h-4l-9 45q-10 45 -28 113l-252 903h-262z" />
<glyph unicode="N" horiz-adv-x="1331" d="M145 0h220v903q0 63 -5 113l-4 51h4q2 -2 11.5 -22.5t29 -58.5t41.5 -77l535 -909h209v1409h-217v-850q0 -61 3 -105l3 -44h-4l-21 42q-20 42 -55 101l-504 856h-246v-1409z" />
<glyph unicode="O" horiz-adv-x="1259" d="M100 705q0 -152 30 -284t93.5 -230.5t164.5 -154.5t243 -56q141 0 241.5 56t164 154.5t93 230.5t29.5 284q0 150 -29.5 281.5t-93 230t-164 156t-241.5 57.5t-242.5 -57.5t-165 -156t-93.5 -230.5t-30 -281zM365 713q0 98 11 196.5t40.5 175t81 124.5t133.5 48t133 -48 t79.5 -124.5t40 -175t11.5 -196.5t-10.5 -195.5t-39 -174.5t-79.5 -124t-135 -47t-136.5 47t-81 124t-38.5 174t-10 196z" />
<glyph unicode="P" horiz-adv-x="1124" d="M145 0h254v557l56 -4q44 -3 84 -3q105 0 187 22q112 32 183.5 92.5t105.5 145.5t34 181q0 94 -30 174t-92.5 138.5t-159.5 92.5t-232 34q-123 0 -222.5 -23t-167.5 -57v-1350zM399 711v546q18 8 51 15.5t80 7.5q145 0 207 -72t62 -215q0 -74 -18.5 -130t-59.5 -94 q-41 -39 -107 -55q-43 -11 -98 -10q-30 0 -63 3z" />
<glyph unicode="Q" horiz-adv-x="1259" d="M100 707q0 -150 30 -282t93.5 -230.5t164.5 -154.5t243 -56q55 0 114 14l199 -399l191 170l-234 288q70 49 119 118t79.5 153t45 179.5t14.5 199.5q0 150 -28.5 280.5t-92 229t-164 156t-243.5 57.5q-141 0 -242.5 -57.5t-165 -156t-93.5 -229.5t-30 -280zM365 717 q0 98 10 194.5t39.5 173t81 124.5t135.5 48t136 -48t81 -124.5t39 -173t10 -194.5t-10 -194.5t-39 -174.5t-81 -126t-136 -48q-86 0 -138.5 48t-81 126t-37.5 174t-9 195z" />
<glyph unicode="R" horiz-adv-x="1159" d="M150 0h256v639h4l399 -639h289l-420 625v4q84 6 153.5 34.5t118.5 76.5t77 115t28 146q0 199 -128 314t-392 115q-123 0 -221.5 -23t-163.5 -57v-1350zM406 702v553q23 10 55.5 17.5t73.5 7.5q143 0 204.5 -72t61.5 -219q0 -141 -74 -219t-225 -78q-29 0 -56.5 3t-39.5 7 z" />
<glyph unicode="S" horiz-adv-x="970" d="M76 59q57 -37 139 -58t209 -21q98 0 181 31.5t142.5 89t93 136.5t33.5 173q0 51 -10 104t-44 106.5t-96 103.5t-167 93q-92 39 -152.5 89t-60.5 143q0 94 52.5 149t150.5 55q68 0 124 -20.5t93 -42.5l57 160q-47 35 -125 57.5t-184 22.5q-98 0 -176 -33t-132 -90.5 t-84 -132t-30 -158.5q0 -51 13.5 -104.5t46 -103.5t89 -95t142.5 -82q119 -49 169 -103.5t50 -134.5q0 -98 -60.5 -157.5t-164.5 -59.5q-80 0 -139.5 20.5t-96.5 45.5z" />
<glyph unicode="T" horiz-adv-x="911" d="M63 1235h263v-1235h260v1235h264v174h-787v-174z" />
<glyph unicode="U" horiz-adv-x="1220" d="M145 410q0 -96 34 -176t95.5 -136.5t146.5 -88.5t189 -32t189.5 32t147 88.5t95 136.5t33.5 176v999h-241v-997q0 -115 -61.5 -174.5t-151.5 -59.5q-88 0 -151.5 59.5t-63.5 174.5v997h-261v-999z" />
<glyph unicode="V" horiz-adv-x="1124" d="M31 1409l424 -1409h225l416 1409h-248l-234 -905q-10 -39 -18 -82t-13 -67.5t-5 -28.5h-5q0 4 -5 28.5t-13 67.5t-18 82l-230 905h-276z" />
<glyph unicode="W" horiz-adv-x="1697" d="M59 1409l324 -1409h229l209 862q16 61 21 108l6 46h4l5 -47t22 -107l211 -862h229l323 1409h-239l-182 -922q-6 -37 -12.5 -75.5t-8.5 -59t-2 -24.5h-4q0 4 -3 24.5t-9 59.5t-15 75l-211 922h-192l-213 -922q-8 -39 -15.5 -76.5t-10.5 -59t-3 -23.5h-4q0 2 -3 23.5 t-9 59.5l-12 76l-175 922h-260z" />
<glyph unicode="X" horiz-adv-x="1101" d="M31 0h266l244 520h4l235 -520h291l-383 752l350 657h-247l-232 -477h-4l-205 477h-280l342 -688z" />
<glyph unicode="Y" horiz-adv-x="1054" d="M18 1409l379 -801v-608h260v608l383 801h-247l-252 -584h-4l-242 584h-277z" />
<glyph unicode="Z" horiz-adv-x="925" d="M43 0h815v174h-479l467 1235h-764v-174h440z" />
<glyph unicode="[" horiz-adv-x="724" d="M145 -440h492v145h-270v1759h270v144h-492v-2048z" />
<glyph unicode="\" horiz-adv-x="1179" d="M25 1554l972 -2023l158 78l-973 2023z" />
<glyph unicode="]" horiz-adv-x="724" d="M88 -295v-145h492v2048h-492v-144h270v-1759h-270z" />
<glyph unicode="^" horiz-adv-x="1218" d="M180 954l96 -94l334 375l332 -375l96 94l-313 412q-23 31 -54.5 45t-60.5 14q-31 0 -61.5 -14t-54.5 -45z" />
<glyph unicode="_" d="M-20 -272v-156h1159v156h-1159z" />
<glyph unicode="`" horiz-adv-x="454" d="M-14 1503l250 -282h137l-142 288q-31 18 -69.5 27.5t-75.5 9.5q-35 0 -63.5 -10t-36.5 -33z" />
<glyph unicode="a" horiz-adv-x="1062" d="M80 315q0 -160 111.5 -247.5t338.5 -87.5q129 0 231.5 22t168.5 57v684q0 106 -32 179t-87 118t-129 64.5t-160 19.5q-131 0 -228 -28.5t-151 -55.5l58 -143q51 25 123.5 46.5t152.5 21.5q49 0 89 -8.5t69 -29t45 -56t16 -89.5v-59q-127 -12 -238.5 -36.5t-195.5 -71 t-133 -119t-49 -181.5zM315 324q0 76 27 125t76 79.5t119.5 48t158.5 27.5v-454q-29 -14 -67.5 -22.5t-81.5 -8.5q-111 0 -171.5 48t-60.5 157z" />
<glyph unicode="b" horiz-adv-x="1124" d="M133 59q53 -35 144.5 -57t220.5 -22t228 40.5t168 118.5t103.5 189t34.5 250q0 123 -31.5 223t-89 170.5t-137.5 108.5t-176 38q-78 0 -127 -13t-90 -32v535h-248v-1549zM381 156v784q31 16 64.5 24.5t84.5 8.5q70 0 119 -32t79 -87t43 -130t13 -161q0 -197 -64.5 -313.5 t-211.5 -116.5q-76 0 -127 23z" />
<glyph unicode="c" horiz-adv-x="851" d="M92 555q0 -137 33 -243.5t91 -180.5t138 -112.5t174 -38.5q100 0 162.5 22t97.5 53l-57 154q-27 -23 -62.5 -36t-86.5 -13q-117 0 -177.5 107.5t-60.5 291.5q0 90 14.5 164t43 125t74.5 78.5t110 27.5q53 0 89 -14t58 -33l53 142q-31 27 -92 51t-164 24 q-92 0 -171.5 -37.5t-139 -109.5t-93.5 -178.5t-34 -243.5z" />
<glyph unicode="d" horiz-adv-x="1124" d="M92 539q0 -264 134 -411.5t380 -147.5q129 0 224 21t161 58v1549h-250v-514q-70 20 -166 20q-109 0 -196.5 -39t-152 -113.5t-99.5 -181t-35 -241.5zM340 553q0 88 15.5 164t49 133t89 90t137.5 33q61 0 110 -15v-794q-39 -25 -129 -25q-72 0 -124 30t-84.5 84t-48 130 t-15.5 170z" />
<glyph unicode="e" horiz-adv-x="1099" d="M92 555q0 -281 138.5 -428t373.5 -147q127 0 216 22.5t149 54.5l-60 158q-45 -23 -113.5 -42t-164.5 -19q-270 0 -301 307l676 98q1 18 1 36q0 254 -108 387q-115 142 -336 142q-109 0 -195.5 -37.5t-148 -111.5t-94.5 -179.5t-33 -240.5zM315 588v22q1 182 63 269 q66 92 177 92q104 0 160.5 -73t56.5 -241z" />
<glyph unicode="f" horiz-adv-x="679" d="M74 944h123v-944h249v944h181v160h-181v158q0 106 50.5 145t130.5 41v160q-28 2 -54 2q-165 0 -263 -86q-113 -101 -113 -287v-133h-123v-160z" />
<glyph unicode="g" d="M92 528q0 -125 33 -225t91 -170t140 -106.5t181 -36.5q72 0 123 11t83 30v-70q0 -111 -57 -179.5t-197 -68.5q-78 0 -147.5 19.5t-116.5 46.5l-69 -164q59 -35 158.5 -56.5t217.5 -21.5q102 0 186.5 28.5t144 84t91 139.5t31.5 195v1060q-53 35 -144 57.5t-214 22.5 q-133 0 -233.5 -43t-167 -120.5t-100.5 -187t-34 -245.5zM340 541q0 209 63.5 322.5t210.5 113.5q41 0 73 -5t56 -20v-782q-27 -16 -62.5 -25.5t-78.5 -9.5q-139 0 -200.5 101.5t-61.5 304.5z" />
<glyph unicode="h" horiz-adv-x="1136" d="M133 0h250v918q41 25 83 35t93 10q55 0 93 -15.5t60.5 -41t32 -59.5t9.5 -71v-776h250v782q0 63 -19.5 124t-63.5 107t-116 74.5t-176 28.5q-125 0 -246 -59v551h-250v-1608z" />
<glyph unicode="i" horiz-adv-x="532" d="M129 1417q0 -51 40 -87t97 -36q59 0 98 36t39 87q0 53 -38.5 89t-98.5 36q-57 0 -97 -36t-40 -89zM141 0h250v1104h-250v-1104z" />
<glyph unicode="j" horiz-adv-x="536" d="M-47 -293v-166q92 6 172 46t140.5 110t95 170t34.5 227v1010h-250v-1036q0 -86 -13 -147.5t-37.5 -103.5t-60.5 -69t-81 -41zM133 1417q0 -51 40 -87t97 -36q59 0 98.5 36t39.5 87q0 53 -40 89t-98 36q-57 0 -97 -36t-40 -89z" />
<glyph unicode="k" horiz-adv-x="1046" d="M141 0h248v563h4l369 -563h280l-426 598l381 506h-254l-350 -500h-4v1004h-248v-1608z" />
<glyph unicode="l" horiz-adv-x="536" d="M143 0h250v1608h-250v-1608z" />
<glyph unicode="m" horiz-adv-x="1757" d="M133 0h250v936q37 16 73 23.5t91 7.5q102 0 154.5 -48.5t52.5 -127.5v-791h250v889q76 76 184 76q100 0 143 -54.5t43 -126.5v-784h250v786q0 66 -22.5 126.5t-68.5 107.5t-118 75.5t-170 28.5q-127 0 -213 -34.5t-141 -85.5q-47 53 -128 86.5t-216 33.5 q-139 0 -234.5 -19.5t-179.5 -60.5v-1044z" />
<glyph unicode="n" horiz-adv-x="1136" d="M133 0h250v936q35 14 73 22.5t99 8.5q59 0 97 -16.5t60.5 -42t32 -59.5t9.5 -67v-782h250v786q0 68 -23 128.5t-74 107.5t-135 74.5t-207 27.5q-141 0 -247.5 -21.5t-184.5 -58.5v-1044z" />
<glyph unicode="o" horiz-adv-x="1101" d="M92 551q0 -123 29 -227.5t85 -181t142 -119.5t203 -43t203 43t142 119.5t85 181t29 227.5t-28 228.5t-85 182t-143 119.5t-203 43t-203 -43t-142 -119.5t-85 -182t-29 -228.5zM340 553q0 80 8 153.5t30.5 132t64.5 93.5t108 35q68 0 108.5 -35t63 -93.5t31 -132 t8.5 -153.5q0 -78 -8.5 -150.5t-31 -129t-63.5 -90t-108 -33.5q-66 0 -107 33.5t-63.5 90t-31.5 129t-9 150.5z" />
<glyph unicode="p" horiz-adv-x="1124" d="M133 -440h248v448q29 -10 74 -16t92 -6q109 0 198 40t153.5 114.5t99 182t34.5 242.5q0 131 -35.5 235.5t-102.5 176.5t-162 109.5t-216 37.5q-133 0 -226 -22.5t-157 -57.5v-1484zM381 154v798q27 10 57.5 16.5t71.5 6.5q152 0 213 -109.5t61 -308.5 q0 -203 -72.5 -312.5t-219.5 -109.5q-68 0 -111 19z" />
<glyph unicode="q" horiz-adv-x="1124" d="M92 524q0 -125 32 -224t90 -170t139 -108.5t179 -37.5q68 0 120.5 12t90.5 33v-469h248v1484q-55 33 -146 56.5t-218 23.5q-141 0 -241.5 -46t-166 -126t-96.5 -189.5t-31 -238.5zM340 541q0 209 66.5 322.5t207.5 113.5q84 0 129 -23v-784q-27 -16 -62.5 -25.5 t-80.5 -9.5q-137 0 -198.5 105.5t-61.5 300.5z" />
<glyph unicode="r" horiz-adv-x="696" d="M133 0h250v932q43 25 107 28h14q56 0 112 -20l50 182q-42 1 -79 0q-57 0 -105 -1q-80 -3 -144 -13t-113 -26.5t-92 -37.5v-1044z" />
<glyph unicode="s" horiz-adv-x="849" d="M66 61q49 -35 127.5 -57t177.5 -22q90 0 162.5 26.5t124 72.5t79 107t27.5 129q0 49 -11.5 93.5t-40 85.5t-80.5 77.5t-132 69.5q-72 29 -118 68t-46 106q0 59 40 102.5t118 43.5q59 0 105 -20.5t71 -41.5l61 146q-53 35 -123.5 56t-163.5 21q-80 0 -144 -25.5 t-110.5 -68.5t-71 -101.5t-24.5 -123.5q0 -43 10.5 -85t38 -82t76.5 -76t127 -66q86 -33 124 -72t38 -111q0 -68 -46 -111.5t-124 -43.5q-68 0 -122 19.5t-85 43.5z" />
<glyph unicode="t" horiz-adv-x="702" d="M74 944h123v-657q0 -57 16 -111.5t53 -95.5t94.5 -66.5t139.5 -25.5q45 0 78 7t49 15v156q-16 -4 -29.5 -7t-30.5 -3q-66 0 -93.5 38.5t-27.5 104.5v645h181v160h-181v313l-249 -69v-244h-123v-160z" />
<glyph unicode="u" d="M133 350q0 -184 102.5 -278.5t325.5 -94.5q145 0 249.5 26t174.5 63v1038h-250v-918q-33 -18 -72.5 -27t-93.5 -9q-98 0 -142 54t-44 132v768h-250v-754z" />
<glyph unicode="v" horiz-adv-x="1034" d="M43 1104l360 -1104h238l354 1104h-233l-199 -713q-16 -61 -22 -106l-6 -45h-5l-5 46t-21 105l-195 713h-266z" />
<glyph unicode="w" horiz-adv-x="1611" d="M57 1104l308 -1104h225l194 692q16 53 20 98l5 44h4l3 -44q3 -45 20 -98l190 -692h225l308 1104h-222l-170 -713q-12 -53 -17 -100l-5 -47h-4l-7 46q-6 46 -20 99l-186 715h-209l-195 -715q-16 -63 -22 -104l-6 -41h-4l-4 41q-3 41 -17 104l-162 715h-252z" />
<glyph unicode="x" horiz-adv-x="1015" d="M33 0h254l211 401h4l207 -401h274l-346 588l313 516h-235l-195 -361h-4l-186 361h-262l307 -533z" />
<glyph unicode="y" horiz-adv-x="1034" d="M43 1104l365 -1104l-181 -440h265l503 1544h-233l-205 -715q-18 -66 -25 -112l-6 -46h-4l-3 47q-3 46 -19 111l-191 715h-266z" />
<glyph unicode="z" horiz-adv-x="876" d="M57 0h744v160h-418l405 944h-696v-160h385z" />
<glyph unicode="{" horiz-adv-x="792" d="M90 612q39 -2 69.5 -13t52 -37.5t34 -69.5t12.5 -107v-307q0 -96 35 -162t94 -104.5t138 -55t165 -16.5v131q-111 0 -163 46t-52 151v356q0 117 -50 176t-132 76l1 1t-1 3q82 16 132 74.5t50 171.5v356q0 104 52.5 150.5t162.5 46.5v129q-88 0 -166 -16.5t-137 -56.5 t-94 -104.5t-35 -160.5v-303q0 -63 -12.5 -105.5t-34 -68t-52 -37t-69.5 -13.5v-131z" />
<glyph unicode="|" horiz-adv-x="489" d="M145 -440h199v2048h-199v-2048z" />
<glyph unicode="}" horiz-adv-x="792" d="M102 -129v-131q88 0 166 16.5t137.5 55t94.5 104.5t35 162v307q0 63 12 106.5t33.5 70t53 37.5t68.5 13v131q-39 2 -69.5 13.5t-52 37t-33.5 67.5t-12 106v303q0 96 -35 160.5t-94.5 104.5t-137.5 56.5t-166 16.5v-129q111 0 164 -46.5t53 -150.5v-356 q0 -113 49.5 -171.5t131.5 -74.5v-4q-82 -16 -131.5 -75.5t-49.5 -176.5v-356q0 -104 -53 -150.5t-164 -46.5z" />
<glyph unicode="~" horiz-adv-x="1218" d="M162 694l76 -151q20 47 62 91t114 52q57 6 106 -15.5t98.5 -49t100.5 -49t112 -13.5q94 12 148.5 54t77.5 112l-80 154q-23 -51 -64 -91t-114 -51q-55 -6 -103.5 15.5t-95.5 49t-100.5 49t-118.5 15.5q-92 -10 -140 -57t-79 -115z" />
<glyph unicode="&#xa1;" horiz-adv-x="636" d="M190 -440h297l-53 925h-190zM190 831q0 -61 43 -105t107 -44q61 0 105 44t44 105q0 63 -44 106.5t-105 43.5q-63 0 -106.5 -43t-43.5 -107z" />
<glyph unicode="&#xa2;" d="M176 709q0 -215 93 -338t253 -150l-22 -219h157l-18 213q82 4 135 22.5t84 41.5l-53 135q-29 -16 -64.5 -27.5t-83.5 -11.5q-117 0 -178 89t-61 249q0 76 14 137t44 106t75 70t108 25q49 0 84 -12.5t62 -28.5l51 125q-35 27 -85 43t-128 20l16 209h-155l20 -215 q-154 -27 -251 -150.5t-97 -332.5z" />
<glyph unicode="&#xa3;" d="M121 659h196q14 -47 20.5 -85.5t6.5 -88.5q0 -125 -57.5 -249.5t-153.5 -235.5h881v207h-557q10 14 25.5 46t28.5 72t23.5 85t10.5 88q0 41 -2 78.5t-13 82.5h254v146h-278q-16 53 -22.5 97t-6.5 89q0 115 57.5 187.5t186.5 72.5q74 0 129 -17t88 -34l57 154 q-41 27 -125 51.5t-202 24.5q-104 0 -185.5 -31t-134.5 -82t-80.5 -119t-27.5 -141q0 -68 11 -132.5t28 -119.5h-158v-146z" />
<glyph unicode="&#xa4;" d="M92 322l88 -89l146 146q49 -37 108.5 -57.5t124.5 -20.5q66 0 126 20.5t110 55.5l143 -144l88 89l-143 143q35 51 55 110.5t20 124.5q0 66 -20 126.5t-55 109.5l143 143l-88 88l-143 -143q-49 35 -109.5 55.5t-126.5 20.5t-125 -20.5t-108 -55.5l-146 143l-88 -88 l144 -143q-35 -49 -55.5 -109.5t-20.5 -126.5t20.5 -125t55.5 -108zM315 700q0 51 19.5 95.5t52.5 77t77 52t95 19.5t95 -19.5t77 -52t52.5 -77t19.5 -95.5t-19.5 -95t-52.5 -76.5t-77 -52t-95 -19.5t-95 19.5t-77 52t-52.5 76.5t-19.5 95z" />
<glyph unicode="&#xa5;" d="M59 1409l246 -510l-213 14v-112l252 16l90 -186l-342 14v-115l348 17v-547h240l-2 547l346 -17v115l-340 -14l92 186l248 -16v112l-211 -14l246 510h-230l-260 -600h-2l-248 600h-260z" />
<glyph unicode="&#xa6;" horiz-adv-x="489" d="M145 373v-813h199v813h-199zM145 795h199v813h-199v-813z" />
<glyph unicode="&#xa7;" d="M145 553q0 -51 8.5 -96t29 -87t54 -83t87.5 -84l219 -185q66 -55 82 -94t16 -80q0 -66 -49 -100.5t-121 -34.5q-59 0 -111.5 20.5t-80.5 43.5l-60 -150q47 -33 117 -56.5t180 -23.5q80 0 145.5 23.5t112.5 63.5t72.5 94.5t25.5 115.5q0 66 -26.5 130.5t-106.5 138.5 q47 29 90 64.5t75 77.5t51.5 91t19.5 104q0 100 -40 176t-144 164l-183 154q-76 63 -99.5 106.5t-23.5 90.5q0 66 42 99.5t112 33.5q59 0 105.5 -18.5t74.5 -34.5l58 133q-45 29 -113 51t-170 22q-76 0 -136.5 -22.5t-103.5 -61.5t-66.5 -90t-23.5 -106q0 -74 26.5 -130.5 t86.5 -113.5q-43 -27 -84 -61.5t-74 -77.5t-53.5 -94.5t-20.5 -112.5zM330 586q0 78 46 131t99 88l187 -160q70 -59 92 -108t22 -115q0 -72 -44 -123t-105 -92l-178 151q-63 53 -91 104.5t-28 123.5z" />
<glyph unicode="&#xa8;" horiz-adv-x="454" d="M-74 1354q0 -45 35 -76t82 -31t82 31t35 76t-35 74.5t-82 29.5t-82 -29.5t-35 -74.5zM293 1354q0 -45 34.5 -76t82.5 -31q47 0 81.5 31t34.5 76t-34.5 74.5t-81.5 29.5t-82 -29.5t-35 -74.5z" />
<glyph unicode="&#xa9;" horiz-adv-x="1667" d="M109 702q0 -152 56 -282.5t154.5 -229t230.5 -154.5t284 -56q150 0 281.5 56t230 154.5t156 229t57.5 282.5q0 150 -57.5 283t-156 231.5t-230.5 156t-281 57.5q-152 0 -284 -57.5t-230.5 -156t-154.5 -231.5t-56 -283zM215 702q0 129 48 242t132 197t197 133t242 49 t240.5 -49t195.5 -133t132 -197t48 -242q0 -127 -48 -239.5t-132 -196.5t-195.5 -132t-240.5 -48t-242 48t-197 132t-132 196.5t-48 239.5zM410 707q0 -88 33.5 -166t92 -136.5t136.5 -92t168 -33.5q98 0 179.5 39.5t147.5 113.5l-90 72q-47 -53 -107.5 -83t-129.5 -30 q-66 0 -123.5 24.5t-100.5 67.5t-67.5 100.5t-24.5 123.5t24.5 124t67.5 101t100.5 67.5t123.5 24.5q72 0 131 -29.5t106 -83.5l88 74q-61 72 -141 112t-184 40q-90 0 -168 -34t-136.5 -92.5t-92 -136t-33.5 -167.5z" />
<glyph unicode="&#xaa;" horiz-adv-x="749" d="M82 918q0 -100 74.5 -156.5t228.5 -56.5q86 0 152.5 14t111.5 39v426q0 68 -20.5 113.5t-57 73.5t-86 40t-106.5 12q-86 0 -148.5 -16t-99.5 -35l39 -100q35 16 83 29.5t95 13.5q66 0 102.5 -23.5t36.5 -85.5v-32q-82 -8 -155.5 -21.5t-129 -42.5t-88 -75t-32.5 -117z M240 922q0 90 66.5 120.5t180.5 42.5v-266q-37 -16 -94 -16q-72 0 -112.5 26.5t-40.5 92.5z" />
<glyph unicode="&#xab;" horiz-adv-x="1087" d="M102 684l308 -465l135 82l-252 383l252 383l-135 82zM512 684l307 -465l137 82l-251 383l251 383l-137 82z" />
<glyph unicode="&#xac;" d="M156 602h637v-317h170v481h-807v-164z" />
<glyph unicode="&#xad;" horiz-adv-x="716" d="M109 594h499v190h-499v-190z" />
<glyph unicode="&#xae;" horiz-adv-x="1667" d="M109 702q0 -152 56 -282.5t154.5 -229t230.5 -154.5t284 -56q150 0 281.5 56t230 154.5t156 229t57.5 282.5q0 150 -57.5 283t-156 231.5t-230.5 156t-281 57.5q-152 0 -284 -57.5t-230.5 -156t-154.5 -231.5t-56 -283zM215 702q0 129 48 242t132 198t197 134t242 49 t240.5 -49t195.5 -134t132 -198t48 -242q0 -127 -48 -239.5t-132 -196.5t-195.5 -132t-240.5 -48t-242 48t-197 132t-132 196.5t-48 239.5zM596 293h117v377h24l260 -377h142l-277 385q102 10 169 69.5t67 165.5q0 111 -82 176.5t-211 65.5q-59 0 -113.5 -11t-95.5 -32v-819 zM713 748v299q16 4 37.5 8t44.5 4q31 0 63.5 -6t58 -22.5t43 -45.5t17.5 -72q0 -94 -58.5 -129.5t-142.5 -35.5h-63z" />
<glyph unicode="&#xaf;" horiz-adv-x="454" d="M-84 1284h623v135h-623v-135z" />
<glyph unicode="&#xb0;" horiz-adv-x="856" d="M113 1118q0 -66 24.5 -123t67.5 -100t100 -67.5t123 -24.5t123 24.5t100 67.5t67.5 100t24.5 123t-24.5 123t-67.5 100t-100 68t-123 25t-123 -25t-100 -68t-67.5 -100t-24.5 -123zM236 1118q0 80 56 135.5t136 55.5t136.5 -55.5t56.5 -135.5q0 -41 -15.5 -75.5 t-41 -60.5t-61.5 -41t-75 -15q-41 0 -76 15t-60.5 41t-40.5 60.5t-15 75.5z" />
<glyph unicode="&#xb1;" d="M156 141h807v154h-807v-154zM156 743h321v-329h164v329h322v154h-322v328h-164v-328h-321v-154z" />
<glyph unicode="&#xb2;" horiz-adv-x="770" d="M84 545h573v145h-309l189 242q59 76 85.5 134t26.5 112q0 49 -17.5 93t-53 77.5t-90 53t-130.5 19.5q-68 0 -130 -14t-105 -37l47 -117q29 14 63.5 23.5t79.5 9.5q80 0 117 -38t37 -91q0 -41 -15.5 -79t-60.5 -101z" />
<glyph unicode="&#xb3;" horiz-adv-x="770" d="M94 586q47 -27 105.5 -40.5t140.5 -13.5q68 0 125 19.5t100 55.5t66.5 87.5t23.5 112.5q0 49 -14 85t-36.5 63.5t-52.5 46t-63 30.5q43 20 86 65.5t43 116.5q0 100 -74.5 154.5t-191.5 54.5q-76 0 -129 -13t-100 -38l47 -110q70 35 147 34q55 0 92 -25.5t37 -76.5 q0 -55 -51 -92t-149 -47v-103q39 0 79 -5t72.5 -21.5t52 -45t19.5 -75.5q0 -63 -40 -100t-118 -37q-53 0 -95 11t-73 28z" />
<glyph unicode="&#xb4;" horiz-adv-x="454" d="M82 1221h137l250 282q-10 23 -38 33t-64 10q-35 0 -74 -9t-70 -28z" />
<glyph unicode="&#xb6;" d="M51 1014q0 -78 24.5 -141.5t71 -112.5t109.5 -81t143 -42v-1077h162v1732h246v-1732h162v1732h65v117h-504q-96 0 -183 -21.5t-152.5 -69.5t-104.5 -123t-39 -181z" />
<glyph unicode="&#xb7;" horiz-adv-x="536" d="M117 705q0 -63 44 -107.5t107 -44.5t107.5 44.5t44.5 107.5t-44 107t-108 44q-63 0 -107 -44t-44 -107z" />
<glyph unicode="&#xb8;" horiz-adv-x="454" d="M-47 -410q256 -23 402.5 16.5t146.5 139.5q0 37 -18.5 65.5t-62.5 47t-116 23.5t-178 -3l-47 -78q135 10 193.5 -3t58.5 -54q0 -23 -26.5 -39t-71 -25.5t-104.5 -10.5t-128 5z" />
<glyph unicode="&#xb9;" horiz-adv-x="770" d="M139 1278l19 -102q63 4 114.5 12t94.5 24v-667h176v864h-125q-27 -41 -93.5 -79t-185.5 -52z" />
<glyph unicode="&#xba;" horiz-adv-x="749" d="M68 1067q0 -76 18 -141.5t57 -114.5t96.5 -76.5t135.5 -27.5t135 27.5t96 76.5t57.5 114.5t18.5 141.5t-18.5 142.5t-56.5 113.5t-96 74.5t-136 27.5t-135.5 -27.5t-96.5 -74.5t-57 -113.5t-18 -142.5zM240 1069q0 49 5 95t20.5 80t41 54.5t68.5 20.5t68.5 -20.5 t41 -54.5t20.5 -80t5 -95t-5 -93t-20.5 -78t-41 -53.5t-68.5 -19.5q-41 0 -67.5 19.5t-42 52.5t-20.5 78t-5 94z" />
<glyph unicode="&#xbb;" horiz-adv-x="1087" d="M131 301l137 -82l305 465l-305 465l-137 -82l252 -383zM543 301l135 -82l307 465l-307 465l-135 -82l252 -383z" />
<glyph unicode="&#xbc;" horiz-adv-x="1687" d="M84 1278l18 -102q63 4 115.5 12t95.5 24v-667h176v864h-122q-29 -41 -100.5 -79t-182.5 -52zM432 16l139 -59l658 1436l-139 57zM975 178h342v-178h168v178h65v107h-65v579h-166l-344 -577v-109zM1087 285l170 288q25 43 41 80l17 37h4l-1 -37t-1 -82v-286h-230z" />
<glyph unicode="&#xbd;" horiz-adv-x="1687" d="M84 1278l18 -102q63 4 115.5 12t95.5 24v-667h176v864h-122q-29 -41 -100.5 -79t-182.5 -52zM399 16l140 -59l657 1436l-139 57zM981 0h569v145h-307l189 236q59 76 85.5 136.5t26.5 113.5q0 49 -17.5 93t-53 78t-90 54.5t-130.5 20.5q-82 0 -134 -16.5t-89 -35.5 l47 -114q29 14 59.5 23t71.5 9q82 0 118 -35.5t36 -95.5q0 -39 -12.5 -77.5t-61.5 -108.5z" />
<glyph unicode="&#xbe;" horiz-adv-x="1687" d="M94 586q47 -27 105.5 -40.5t140.5 -13.5q68 0 125 19.5t100 55.5t66.5 87.5t23.5 112.5q0 49 -14 85t-36.5 63.5t-52.5 46t-63 30.5q43 20 86 65.5t43 116.5q0 100 -74.5 154.5t-191.5 54.5q-74 0 -128 -13t-101 -38l47 -110q70 35 147 34q55 0 92 -25.5t37 -76.5 q0 -55 -51 -92t-149 -47v-103q39 0 79 -5t72.5 -21.5t52 -45t19.5 -75.5q0 -63 -40 -100t-116 -37q-55 0 -97 11t-73 28zM496 16l137 -59l659 1436l-139 57zM985 178h342v-178h168v178h66v107h-66v579h-166l-344 -577v-109zM1098 285l170 288q27 45 43 81t18 36l-1 -38 t-1 -81v-286h-229z" />
<glyph unicode="&#xbf;" horiz-adv-x="864" d="M80 -115q0 -156 115.5 -249t318.5 -93q102 0 184.5 23.5t139.5 56.5l-68 148q-33 -16 -86 -35t-123 -19q-117 0 -168 55.5t-51 133.5q0 49 24.5 89t64.5 70.5t89 51t101 30.5l-31 338h-189l-22 -264q-43 -12 -95.5 -39.5t-97.5 -69.5t-75.5 -99.5t-30.5 -127.5zM344 834 q0 -63 44 -106.5t106 -43.5q63 0 106 43.5t43 106.5q0 61 -43 105t-106 44q-61 0 -105.5 -44t-44.5 -105z" />
<glyph unicode="&#xc0;" horiz-adv-x="1226" d="M25 0h233l113 362h454l109 -362h268l-465 1409h-245zM305 1798l248 -282h139l-141 286q-31 18 -71 28.5t-77 10.5q-35 0 -62.5 -10t-35.5 -33zM412 514l151 496q25 78 32 122l7 44h4l8 -44q7 -45 29 -122l145 -496h-376z" />
<glyph unicode="&#xc1;" horiz-adv-x="1226" d="M25 0h233l113 362h454l109 -362h268l-465 1409h-245zM412 514l151 496q25 78 32 122l7 44h4l8 -44q7 -45 29 -122l145 -496h-376zM518 1516h137l250 282q-10 23 -37.5 33t-64.5 10q-35 0 -74 -10t-70 -29z" />
<glyph unicode="&#xc2;" horiz-adv-x="1226" d="M25 0h233l113 362h454l109 -362h268l-465 1409h-245zM326 1567l69 -62l219 158l220 -158l67 62l-207 211q-35 35 -82 34q-43 0 -77 -34zM412 514l151 496q25 78 32 122l7 44h4l8 -44q7 -45 29 -122l145 -496h-376z" />
<glyph unicode="&#xc3;" horiz-adv-x="1226" d="M25 0h233l113 362h454l109 -362h268l-465 1409h-245zM303 1630l59 -110q14 33 40 61.5t77 34.5q39 4 72 -10.5t66.5 -32t69.5 -30.5t81 -7q66 8 100 37t50 74l-62 112q-14 -35 -41 -61.5t-78 -32.5q-37 -4 -68.5 10.5t-63.5 30.5t-67.5 30.5t-80.5 10.5q-66 -6 -99.5 -38 t-54.5 -79zM412 514l151 496q25 78 32 122l7 44h4l8 -44q7 -45 29 -122l145 -496h-376z" />
<glyph unicode="&#xc4;" horiz-adv-x="1226" d="M25 0h233l113 362h454l109 -362h268l-465 1409h-245zM313 1642q0 -45 35 -74.5t82 -29.5t82 29.5t35 74.5t-35 76t-82 31t-82 -30.5t-35 -76.5zM412 514l151 496q25 78 32 122l7 44h4l8 -44q7 -45 29 -122l145 -496h-376zM682 1642q0 -45 35 -74.5t82 -29.5t81.5 29.5 t34.5 74.5t-34.5 76t-81.5 31t-82 -30.5t-35 -76.5z" />
<glyph unicode="&#xc5;" horiz-adv-x="1226" d="M25 0h233l113 362h454l109 -362h268l-465 1409h-245zM412 514l151 496q25 78 32 122l7 44h4l8 -44q7 -45 29 -122l145 -496h-376zM442 1679q0 -35 13.5 -66.5t37 -55t54.5 -37t67 -13.5q72 0 122 50t50 122q0 37 -13 69t-36.5 55.5t-55.5 36.5t-67 13q-72 0 -122 -51 t-50 -123zM524 1679q0 39 25.5 64.5t64.5 25.5q37 0 64 -25.5t27 -64.5q0 -37 -27 -63.5t-64 -26.5q-39 0 -64.5 26.5t-25.5 63.5z" />
<glyph unicode="&#xc6;" horiz-adv-x="1538" d="M-6 0h237l144 360h456l80 -360h578v174h-363l-114 463h338v172h-377l-107 426h484v174h-766zM434 516l205 531q23 53 32 94l9 41h4l3 -41t13 -94l111 -531h-377z" />
<glyph unicode="&#xc7;" horiz-adv-x="993" d="M100 705q0 -147 34 -278.5t101.5 -231t169 -157.5t236.5 -58q191 -1 293 79l-62 168q-37 -23 -76.5 -36t-101.5 -13q-86 0 -147.5 44t-100 118t-57 169t-18.5 198q0 100 16 197t54 172t100.5 121t152.5 46q63 0 107.5 -15.5t75.5 -33.5l57 156q-51 37 -122 58.5 t-169 21.5q-135 0 -236.5 -59.5t-169 -160t-102.5 -231.5t-35 -274zM279 -410q254 -23 401 16.5t147 139.5q0 37 -18 65.5t-62.5 47t-116 23.5t-177.5 -3l-47 -78q135 10 193 -3t58 -54q0 -23 -26.5 -39t-70.5 -25.5t-104.5 -10.5t-127.5 5z" />
<glyph unicode="&#xc8;" horiz-adv-x="919" d="M145 0h686v174h-425v463h378v172h-378v426h425v174h-686v-1409zM215 1798l248 -282h139l-141 286q-31 18 -71 28.5t-77 10.5q-35 0 -62.5 -10t-35.5 -33z" />
<glyph unicode="&#xc9;" horiz-adv-x="919" d="M145 0h686v174h-425v463h378v172h-378v426h425v174h-686v-1409zM373 1516h139l248 282q-10 23 -38 33t-65 10q-35 0 -73.5 -10t-69.5 -29z" />
<glyph unicode="&#xca;" horiz-adv-x="919" d="M145 0h686v174h-425v463h378v172h-378v426h425v174h-686v-1409zM186 1567l70 -62l221 158l217 -158l70 62l-209 211q-35 35 -80 34q-45 0 -80 -34z" />
<glyph unicode="&#xcb;" horiz-adv-x="919" d="M145 0h689v174h-426v463h376v172h-376v426h426v174h-689v-1409zM182 1642q0 -45 35 -74.5t82 -29.5t82 29.5t35 74.5t-35 76t-82 31t-82 -30.5t-35 -76.5zM549 1642q0 -45 34.5 -74.5t82.5 -29.5q47 0 81.5 29.5t34.5 74.5t-34.5 76t-81.5 31t-82 -30.5t-35 -76.5z" />
<glyph unicode="&#xcc;" horiz-adv-x="561" d="M20 1798l248 -282h140l-142 286q-31 18 -70.5 28.5t-76.5 10.5q-35 0 -62.5 -10t-36.5 -33zM152 0h260v1409h-260v-1409z" />
<glyph unicode="&#xcd;" horiz-adv-x="561" d="M150 0h262v1409h-262v-1409zM154 1516h139l248 282q-8 23 -36 33t-65 10q-35 0 -74.5 -10t-70.5 -29z" />
<glyph unicode="&#xce;" horiz-adv-x="561" d="M-6 1567l67 -62l220 158l219 -158l67 62l-207 211q-35 35 -79 34q-45 0 -80 -34zM150 0h262v1409h-262v-1409z" />
<glyph unicode="&#xcf;" horiz-adv-x="561" d="M-20 1642q0 -45 34.5 -74.5t81.5 -29.5t82 29.5t35 74.5t-35 76t-82 31t-81.5 -30.5t-34.5 -76.5zM150 0h260v1409h-260v-1409zM348 1642q0 -45 35 -74.5t82 -29.5t82 29.5t35 74.5t-35 76t-82 31t-82 -30.5t-35 -76.5z" />
<glyph unicode="&#xd0;" horiz-adv-x="1292" d="M78 682h112v-623q63 -37 166 -58t234 -21q160 0 274.5 56t187 154.5t106.5 232.5t34 292t-36 290t-111.5 226t-190.5 146.5t-274 52.5q-123 0 -221.5 -23t-168.5 -57v-519h-112v-149zM444 178v504h201v149h-201v410q57 23 136 23q180 0 265 -134.5t85 -410.5 q0 -287 -81 -424t-265 -137q-41 0 -78 5t-62 15z" />
<glyph unicode="&#xd1;" horiz-adv-x="1331" d="M145 0h220v903q0 63 -5 113l-4 51h4q2 -2 11.5 -22.5t29 -58.5t41.5 -77l535 -909h209v1409h-217v-850q0 -61 3 -105l3 -44h-4l-21 42q-20 42 -55 101l-504 856h-246v-1409zM356 1630l58 -110q14 33 40.5 61.5t77.5 34.5q37 4 70 -10.5t66.5 -32t69.5 -30.5t81 -7 q66 8 101 37t51 74l-64 112q-12 -35 -38.5 -61.5t-77.5 -32.5q-37 -4 -69 10.5t-64.5 30.5t-67.5 30.5t-80 10.5q-66 -6 -100.5 -38t-53.5 -79z" />
<glyph unicode="&#xd2;" horiz-adv-x="1259" d="M100 705q0 -152 30 -284t93.5 -230.5t164.5 -154.5t243 -56q141 0 241.5 56t164 154.5t93 230.5t29.5 284q0 150 -29.5 281.5t-93 230t-164 156t-241.5 57.5t-242.5 -57.5t-165 -156t-93.5 -230.5t-30 -281zM360 1798l250 -282h138l-142 286q-31 18 -69.5 28.5 t-75.5 10.5q-35 0 -63.5 -10t-37.5 -33zM365 713q0 98 11 196.5t40.5 175t81 124.5t133.5 48t133 -48t79.5 -124.5t40 -175t11.5 -196.5t-10.5 -195.5t-39 -174.5t-79.5 -124t-135 -47t-136.5 47t-81 124t-38.5 174t-10 196z" />
<glyph unicode="&#xd3;" horiz-adv-x="1259" d="M100 705q0 -152 30 -284t93.5 -230.5t164.5 -154.5t243 -56q141 0 241.5 56t164 154.5t93 230.5t29.5 284q0 150 -29.5 281.5t-93 230t-164 156t-241.5 57.5t-242.5 -57.5t-165 -156t-93.5 -230.5t-30 -281zM365 713q0 98 11 196.5t40.5 175t81 124.5t133.5 48t133 -48 t79.5 -124.5t40 -175t11.5 -196.5t-10.5 -195.5t-39 -174.5t-79.5 -124t-135 -47t-136.5 47t-81 124t-38.5 174t-10 196zM504 1516h139l248 282q-8 23 -36 33t-64 10q-35 0 -74 -10t-70 -29z" />
<glyph unicode="&#xd4;" horiz-adv-x="1259" d="M100 705q0 -152 30 -284t93.5 -230.5t164.5 -154.5t243 -56q141 0 241.5 56t164 154.5t93 230.5t29.5 284q0 150 -29.5 281.5t-93 230t-164 156t-241.5 57.5t-242.5 -57.5t-165 -156t-93.5 -230.5t-30 -281zM342 1567l70 -62l221 158l217 -158l70 62l-209 211 q-35 35 -80 34q-45 0 -80 -34zM365 713q0 98 11 196.5t40.5 175t81 124.5t133.5 48t133 -48t79.5 -124.5t40 -175t11.5 -196.5t-10.5 -195.5t-39 -174.5t-79.5 -124t-135 -47t-136.5 47t-81 124t-38.5 174t-10 196z" />
<glyph unicode="&#xd5;" horiz-adv-x="1259" d="M100 705q0 -152 30 -284t93.5 -230.5t164.5 -154.5t243 -56q141 0 241.5 56t164 154.5t93 230.5t29.5 284q0 150 -29.5 281.5t-93 230t-164 156t-241.5 57.5t-242.5 -57.5t-165 -156t-93.5 -230.5t-30 -281zM319 1630l60 -110q14 33 39.5 61.5t77.5 34.5q39 4 71.5 -10.5 t66.5 -32t69.5 -30.5t80.5 -7q66 8 100 37t50 74l-62 112q-14 -35 -39.5 -61.5t-78.5 -32.5q-37 -4 -69 10.5t-63.5 30.5t-66.5 30.5t-80 10.5q-66 -6 -100.5 -38t-55.5 -79zM365 713q0 98 11 196.5t40.5 175t81 124.5t133.5 48t133 -48t79.5 -124.5t40 -175t11.5 -196.5 t-10.5 -195.5t-39 -174.5t-79.5 -124t-135 -47t-136.5 47t-81 124t-38.5 174t-10 196z" />
<glyph unicode="&#xd6;" horiz-adv-x="1259" d="M100 705q0 -152 30 -284t93.5 -230.5t164.5 -154.5t243 -56q141 0 241.5 56t164 154.5t93 230.5t29.5 284q0 150 -29.5 281.5t-93 230t-164 156t-241.5 57.5t-242.5 -57.5t-165 -156t-93.5 -230.5t-30 -281zM330 1642q0 -45 34.5 -74.5t81.5 -29.5t82 29.5t35 74.5 t-34.5 76t-82.5 31q-47 0 -81.5 -30.5t-34.5 -76.5zM365 713q0 98 11 196.5t40.5 175t81 124.5t133.5 48t133 -48t79.5 -124.5t40 -175t11.5 -196.5t-10.5 -195.5t-39 -174.5t-79.5 -124t-135 -47t-136.5 47t-81 124t-38.5 174t-10 196zM698 1642q0 -45 35 -74.5t82 -29.5 t82 29.5t35 74.5t-35 76t-82 31t-82 -30.5t-35 -76.5z" />
<glyph unicode="&#xd7;" d="M145 348l113 -108l301 327l303 -329l111 108l-305 334l305 332l-113 110l-301 -327l-303 327l-111 -108l306 -334z" />
<glyph unicode="&#xd8;" horiz-adv-x="1267" d="M104 705q0 -158 32 -293.5t102 -235.5l-123 -194l75 -48l111 175q59 -61 142 -95t192 -34q141 0 241.5 56t164 154.5t93 230.5t29.5 284q0 160 -33.5 299t-107.5 237l121 191l-76 47l-109 -172q-59 59 -139 91t-184 32q-141 0 -242.5 -57.5t-165 -156t-93.5 -230.5 t-30 -281zM350 713q0 104 12.5 205.5t45 180.5t88 127t139.5 48q76 0 126 -40t83 -106l-451 -706q-25 63 -34 139t-9 152zM422 299l450 709q25 -66 35.5 -141.5t10.5 -153.5q0 -104 -11.5 -204.5t-43.5 -179.5t-87 -127t-141 -48q-78 0 -129 39.5t-84 105.5z" />
<glyph unicode="&#xd9;" horiz-adv-x="1220" d="M145 410q0 -96 34 -176t95.5 -136.5t146.5 -88.5t189 -32t189.5 32t147 88.5t95 136.5t33.5 176v999h-241v-997q0 -115 -61.5 -174.5t-151.5 -59.5q-88 0 -151.5 59.5t-63.5 174.5v997h-261v-999zM369 1798l249 -282h138l-142 286q-31 18 -69.5 28.5t-75.5 10.5 q-35 0 -63.5 -10t-36.5 -33z" />
<glyph unicode="&#xda;" horiz-adv-x="1220" d="M145 410q0 -96 34 -176t95.5 -136.5t146.5 -88.5t189 -32t189.5 32t147 88.5t95 136.5t33.5 176v999h-241v-997q0 -115 -61.5 -174.5t-151.5 -59.5q-88 0 -151.5 59.5t-63.5 174.5v997h-261v-999zM494 1516h137l250 282q-10 23 -38 33t-65 10q-35 0 -73.5 -10t-69.5 -29z " />
<glyph unicode="&#xdb;" horiz-adv-x="1220" d="M145 410q0 -96 34 -176t95.5 -136.5t146.5 -88.5t189 -32t189.5 32t147 88.5t95 136.5t33.5 176v999h-241v-997q0 -115 -61.5 -174.5t-151.5 -59.5q-88 0 -151.5 59.5t-63.5 174.5v997h-261v-999zM330 1567l69 -62l219 158l220 -158l69 62l-209 211q-35 35 -82 34 q-43 0 -77 -34z" />
<glyph unicode="&#xdc;" horiz-adv-x="1220" d="M145 410q0 -96 34 -176t95.5 -136.5t146.5 -88.5t189 -32t189.5 32t147 88.5t95 136.5t33.5 176v999h-241v-997q0 -115 -61.5 -174.5t-151.5 -59.5q-88 0 -151.5 59.5t-63.5 174.5v997h-261v-999zM322 1642q0 -45 34.5 -74.5t81.5 -29.5t82 29.5t35 74.5t-35 76t-82 31 t-81.5 -30.5t-34.5 -76.5zM690 1642q0 -45 34 -74.5t83 -29.5q47 0 82 29.5t35 74.5t-35 76t-82 31q-49 0 -83 -30.5t-34 -76.5z" />
<glyph unicode="&#xdd;" horiz-adv-x="1054" d="M18 1409l379 -801v-608h260v608l383 801h-245l-250 -584h-4l-242 584h-281zM434 1516h137l250 282q-10 23 -37.5 33t-64.5 10q-35 0 -74 -10t-70 -29z" />
<glyph unicode="&#xde;" horiz-adv-x="1128" d="M145 0h256v317l56 -4q154 -12 265.5 18.5t182 91t104 145t33.5 180.5q0 94 -28.5 176t-90 140t-155.5 92t-225 34q-35 0 -72 -5t-70 -16v240h-256v-1409zM401 475v549q57 18 121 18q125 0 198 -75.5t73 -225.5q0 -63 -19.5 -116.5t-60.5 -90t-106.5 -54t-157.5 -9.5z" />
<glyph unicode="&#xdf;" horiz-adv-x="1179" d="M137 0h250v1079q0 174 44 276.5t157 102.5q102 0 145 -82t43 -229q0 -31 -2 -60.5t-12 -60.5q-86 -29 -141.5 -92.5t-55.5 -161.5q0 -88 40 -149.5t118 -112.5q70 -45 99.5 -85t29.5 -99q0 -72 -46 -115t-116 -43q-45 0 -75.5 9t-55.5 26l-45 -164q35 -25 89 -39t130 -14 t142.5 23.5t115.5 67.5t78 105t29 137q0 98 -42 166t-128 125q-78 51 -104.5 91t-26.5 90q0 78 50 118.5t144 55.5q12 35 19.5 88t7.5 100q0 96 -27.5 182t-82 150.5t-134.5 102.5t-186 38q-123 0 -209 -48t-139.5 -127t-78 -180.5t-24.5 -209.5v-1061z" />
<glyph unicode="&#xe0;" horiz-adv-x="1062" d="M80 315q0 -160 111.5 -247.5t338.5 -87.5q129 0 231.5 22t168.5 57v684q0 106 -32 179t-87 118t-129 64.5t-160 19.5q-131 0 -228 -28.5t-151 -55.5l58 -143q51 25 123.5 46.5t152.5 21.5q49 0 89 -8.5t69 -29t45 -56t16 -89.5v-59q-127 -12 -238.5 -36.5t-195.5 -71 t-133 -119t-49 -181.5zM279 1503l249 -282h138l-142 288q-31 18 -69.5 27.5t-75.5 9.5q-35 0 -63.5 -10t-36.5 -33zM315 324q0 76 27 125t76 79.5t119.5 48t158.5 27.5v-454q-29 -14 -67.5 -22.5t-81.5 -8.5q-111 0 -171.5 48t-60.5 157z" />
<glyph unicode="&#xe1;" horiz-adv-x="1062" d="M80 315q0 -160 111.5 -247.5t338.5 -87.5q129 0 231.5 22t168.5 57v684q0 106 -32 179t-87 118t-129 64.5t-160 19.5q-131 0 -228 -28.5t-151 -55.5l58 -143q51 25 123.5 46.5t152.5 21.5q49 0 89 -8.5t69 -29t45 -56t16 -89.5v-59q-127 -12 -238.5 -36.5t-195.5 -71 t-133 -119t-49 -181.5zM315 324q0 76 27 125t76 79.5t119.5 48t158.5 27.5v-454q-29 -14 -67.5 -22.5t-81.5 -8.5q-111 0 -171.5 48t-60.5 157zM451 1221h139l248 282q-8 23 -36 33t-65 10q-35 0 -73.5 -9t-69.5 -28z" />
<glyph unicode="&#xe2;" horiz-adv-x="1062" d="M80 315q0 -160 111.5 -247.5t338.5 -87.5q129 0 231.5 22t168.5 57v684q0 106 -32 179t-87 118t-129 64.5t-160 19.5q-131 0 -228 -28.5t-151 -55.5l58 -143q51 25 123.5 46.5t152.5 21.5q49 0 89 -8.5t69 -29t45 -56t16 -89.5v-59q-127 -12 -238.5 -36.5t-195.5 -71 t-133 -119t-49 -181.5zM250 1272l69 -62l222 160l217 -160l69 62l-209 211q-33 35 -79 35q-47 0 -80 -35zM315 324q0 76 27 125t76 79.5t119.5 48t158.5 27.5v-454q-29 -14 -67.5 -22.5t-81.5 -8.5q-111 0 -171.5 48t-60.5 157z" />
<glyph unicode="&#xe3;" horiz-adv-x="1062" d="M80 315q0 -160 111.5 -247.5t338.5 -87.5q129 0 231.5 22t168.5 57v684q0 106 -32 179t-87 118t-129 64.5t-160 19.5q-131 0 -228 -28.5t-151 -55.5l58 -143q51 25 123.5 46.5t152.5 21.5q49 0 89 -8.5t69 -29t45 -56t16 -89.5v-59q-127 -12 -238.5 -36.5t-195.5 -71 t-133 -119t-49 -181.5zM225 1337l60 -112q12 33 38.5 62.5t77.5 33.5q37 4 71 -10.5t66.5 -30.5t69.5 -29.5t80 -7.5q66 8 101 37t51 72l-62 114q-14 -35 -40.5 -62.5t-78.5 -31.5q-37 -4 -68.5 10.5t-63 31t-67.5 29.5t-81 9q-66 -6 -99.5 -38t-54.5 -77zM315 324 q0 76 27 125t76 79.5t119.5 48t158.5 27.5v-454q-29 -14 -67.5 -22.5t-81.5 -8.5q-111 0 -171.5 48t-60.5 157z" />
<glyph unicode="&#xe4;" horiz-adv-x="1062" d="M80 315q0 -160 111.5 -247.5t338.5 -87.5q129 0 231.5 22t168.5 57v684q0 106 -32 179t-87 118t-129 64.5t-160 19.5q-131 0 -228 -28.5t-151 -55.5l58 -143q51 25 123.5 46.5t152.5 21.5q49 0 89 -8.5t69 -29t45 -56t16 -89.5v-59q-127 -12 -238.5 -36.5t-195.5 -71 t-133 -119t-49 -181.5zM246 1354q0 -45 33.5 -76t80.5 -31t83 31t36 76t-35.5 74.5t-83.5 29.5q-47 0 -80.5 -29.5t-33.5 -74.5zM315 324q0 76 27 125t76 79.5t119.5 48t158.5 27.5v-454q-29 -14 -67.5 -22.5t-81.5 -8.5q-111 0 -171.5 48t-60.5 157zM614 1354q0 -45 34 -76 t81 -31t82 31t35 76t-35 74.5t-82 29.5t-81 -29.5t-34 -74.5z" />
<glyph unicode="&#xe5;" horiz-adv-x="1062" d="M80 315q0 -160 111.5 -247.5t338.5 -87.5q129 0 231.5 22t168.5 57v684q0 106 -32 179t-87 118t-129 64.5t-160 19.5q-131 0 -228 -28.5t-151 -55.5l58 -143q51 25 123.5 46.5t152.5 21.5q49 0 89 -8.5t69 -29t45 -56t16 -89.5v-59q-127 -12 -238.5 -36.5t-195.5 -71 t-133 -119t-49 -181.5zM315 324q0 76 27 125t76 79.5t119.5 48t158.5 27.5v-454q-29 -14 -67.5 -22.5t-81.5 -8.5q-111 0 -171.5 48t-60.5 157zM371 1386q0 -72 51 -123t123 -51q35 0 66.5 13.5t55 37t37 55t13.5 68.5q0 72 -50.5 122.5t-121.5 50.5q-37 0 -69 -13.5 t-55.5 -37t-36.5 -55.5t-13 -67zM455 1386q0 37 25.5 64t64.5 27q37 0 63.5 -27t26.5 -64q0 -39 -26.5 -64.5t-63.5 -25.5q-39 0 -64.5 26t-25.5 64z" />
<glyph unicode="&#xe6;" horiz-adv-x="1673" d="M80 315q0 -160 102.5 -247.5t306.5 -87.5q131 0 211 48t123 134q55 -84 144.5 -133t208.5 -49q129 0 218 22.5t148 54.5l-61 152q-41 -23 -112 -40t-163 -17q-129 0 -207.5 74.5t-91.5 234.5l672 96q6 281 -107.5 424t-332.5 143q-88 0 -177.5 -43t-142.5 -131 q-41 94 -124 134t-183 40q-129 0 -221 -26.5t-146 -55.5l54 -141q49 23 120.5 44.5t145.5 21.5q96 0 160.5 -40t64.5 -145v-59q-127 -12 -237.5 -39t-193.5 -74t-131 -118.5t-48 -176.5zM305 322q0 74 26.5 123t77 79.5t122 47t159.5 26.5v-293q0 -86 -55 -135t-133 -49 q-90 0 -143.5 47t-53.5 154zM893 590q-2 199 64.5 291t168.5 92t160 -72t60 -244z" />
<glyph unicode="&#xe7;" horiz-adv-x="851" d="M92 555q0 -137 33 -243.5t91 -180.5t138 -112.5t174 -38.5q100 0 162.5 22t97.5 53l-57 154q-27 -23 -62.5 -36t-86.5 -13q-117 0 -177.5 107.5t-60.5 291.5q0 90 14.5 164t43 125t74.5 78.5t110 27.5q53 0 89 -14t58 -33l53 142q-31 27 -92 51t-164 24 q-92 0 -171.5 -37.5t-139 -109.5t-93.5 -178.5t-34 -243.5zM164 -410q256 -23 402.5 16.5t146.5 139.5q0 37 -18.5 65.5t-62.5 47t-116 23.5t-178 -3l-47 -78q135 10 193.5 -3t58.5 -54q0 -23 -27 -39t-71 -25.5t-104 -10.5t-128 5z" />
<glyph unicode="&#xe8;" horiz-adv-x="1099" d="M92 555q0 -281 138.5 -428t373.5 -147q127 0 216 22.5t149 54.5l-60 158q-45 -23 -113.5 -42t-164.5 -19q-270 0 -301 307l676 98q8 281 -107 423t-336 142q-109 0 -195.5 -37.5t-148 -111.5t-94.5 -179.5t-33 -240.5zM283 1503l249 -282h138l-142 288q-31 18 -69.5 27.5 t-75.5 9.5q-35 0 -63.5 -10t-36.5 -33zM315 588q-4 199 62.5 291t177.5 92q104 0 160.5 -73t56.5 -241z" />
<glyph unicode="&#xe9;" horiz-adv-x="1099" d="M92 555q0 -281 138.5 -428t373.5 -147q127 0 216 22.5t149 54.5l-60 158q-45 -23 -113.5 -42t-164.5 -19q-270 0 -301 307l676 98q8 281 -107 423t-336 142q-109 0 -195.5 -37.5t-148 -111.5t-94.5 -179.5t-33 -240.5zM315 588q-4 199 62.5 291t177.5 92q104 0 160.5 -73 t56.5 -241zM463 1221h139l248 282q-8 23 -36 33t-64 10q-35 0 -74 -9t-70 -28z" />
<glyph unicode="&#xea;" horiz-adv-x="1099" d="M92 555q0 -281 138.5 -428t373.5 -147q127 0 216 22.5t149 54.5l-60 158q-45 -23 -113.5 -42t-164.5 -19q-270 0 -301 307l676 98q8 281 -107 423t-336 142q-109 0 -195.5 -37.5t-148 -111.5t-94.5 -179.5t-33 -240.5zM270 1272l70 -62l219 160l219 -160l70 62l-209 211 q-33 35 -80 35t-80 -35zM315 588q-4 199 62.5 291t177.5 92q104 0 160.5 -73t56.5 -241z" />
<glyph unicode="&#xeb;" horiz-adv-x="1099" d="M92 555q0 -281 138.5 -428t373.5 -147q127 0 216 22.5t149 54.5l-60 158q-45 -23 -113.5 -42t-164.5 -19q-270 0 -301 307l676 98q8 281 -107 423t-336 142q-109 0 -195.5 -37.5t-148 -111.5t-94.5 -179.5t-33 -240.5zM262 1354q0 -45 35 -76t82 -31t82 31t35 76 t-35 74.5t-82 29.5t-82 -29.5t-35 -74.5zM315 588q-4 199 62.5 291t177.5 92q104 0 160.5 -73t56.5 -241zM631 1354q0 -45 33.5 -76t83.5 -31q47 0 81.5 31t34.5 76t-34.5 74.5t-81.5 29.5q-49 0 -83 -29.5t-34 -74.5z" />
<glyph unicode="&#xec;" horiz-adv-x="532" d="M6 1503l248 -282h139l-143 288q-31 18 -70 27.5t-76 9.5q-35 0 -62.5 -10t-35.5 -33zM141 0h250v1104h-250v-1104z" />
<glyph unicode="&#xed;" horiz-adv-x="532" d="M141 0h250v1104h-250v-1104zM141 1221h138l249 282q-10 23 -37.5 33t-64.5 10q-35 0 -74 -9t-69 -28z" />
<glyph unicode="&#xee;" horiz-adv-x="532" d="M-23 1272l70 -62l221 160l217 -160l70 62l-209 211q-33 35 -80 35t-80 -35zM143 0h248v1104h-248v-1104z" />
<glyph unicode="&#xef;" horiz-adv-x="532" d="M-33 1354q0 -45 34 -76t81 -31t83 31t36 76t-36 74.5t-83 29.5t-81 -29.5t-34 -74.5zM141 0h250v1104h-250v-1104zM334 1354q0 -45 33.5 -76t83.5 -31q47 0 81.5 31t34.5 76t-34.5 74.5t-81.5 29.5q-49 0 -83 -29.5t-34 -74.5z" />
<glyph unicode="&#xf0;" horiz-adv-x="1110" d="M92 545q0 -129 32 -233.5t91 -178.5t145 -115t197 -41q115 0 200 43t141 119t84 181.5t28 232.5q0 119 -20.5 235.5t-57.5 225t-87 210t-108 193.5l164 53q-6 8 -14 21.5t-18.5 27t-19.5 27t-15 19.5l-164 -52q-29 41 -48.5 62.5t-48.5 50.5l-208 -65q29 -29 48 -52.5 t48 -64.5l-180 -55q16 -16 36.5 -48t28.5 -49l184 58q39 -59 68 -119t59 -133q-29 8 -55.5 12t-66.5 4q-113 0 -196 -47t-138.5 -126t-82 -182.5t-26.5 -213.5zM340 551q0 94 12.5 172t40 132t73.5 84t114 30q33 0 60.5 -4t55.5 -13q14 -37 25.5 -84t21 -99t14.5 -107.5 t5 -104.5q0 -84 -8.5 -157.5t-32 -129t-63.5 -88t-101 -32.5q-63 0 -105 30.5t-67 83.5t-35 127t-10 160z" />
<glyph unicode="&#xf1;" horiz-adv-x="1136" d="M133 0h250v936q35 14 73 22.5t99 8.5q96 0 147.5 -42t51.5 -134v-791h250v791q0 176 -112 254.5t-323 78.5q-141 0 -249.5 -21.5t-186.5 -58.5v-1044zM254 1337l59 -112q14 33 40 62.5t77 33.5q39 4 72 -10.5t66.5 -30.5t69.5 -29.5t81 -7.5q66 8 99.5 37t49.5 72 l-61 114q-14 -35 -40 -62.5t-79 -31.5q-37 -4 -68.5 10.5t-63.5 31t-66.5 29.5t-79.5 9q-66 -6 -101 -38t-55 -77z" />
<glyph unicode="&#xf2;" horiz-adv-x="1101" d="M92 551q0 -123 29 -227.5t85 -181t142 -119.5t203 -43t203 43t142 119.5t85 181t29 227.5t-28 228.5t-85 182t-143 119.5t-203 43t-203 -43t-142 -119.5t-85 -182t-29 -228.5zM270 1503l248 -282h139l-141 288q-31 18 -70.5 27.5t-76.5 9.5q-35 0 -62.5 -10t-36.5 -33z M340 553q0 80 8 153.5t30.5 132t64.5 93.5t108 35q68 0 108.5 -35t63 -93.5t31 -132t8.5 -153.5q0 -78 -8.5 -150.5t-31 -129t-63.5 -90t-108 -33.5q-66 0 -107 33.5t-63.5 90t-31.5 129t-9 150.5z" />
<glyph unicode="&#xf3;" horiz-adv-x="1101" d="M92 551q0 -123 29 -227.5t85 -181t142 -119.5t203 -43t203 43t142 119.5t85 181t29 227.5t-28 228.5t-85 182t-143 119.5t-203 43t-203 -43t-142 -119.5t-85 -182t-29 -228.5zM340 553q0 80 8 153.5t30.5 132t64.5 93.5t108 35q68 0 108.5 -35t63 -93.5t31 -132 t8.5 -153.5q0 -78 -8.5 -150.5t-31 -129t-63.5 -90t-108 -33.5q-66 0 -107 33.5t-63.5 90t-31.5 129t-9 150.5zM451 1221h139l248 282q-8 23 -36 33t-65 10q-35 0 -73.5 -9t-69.5 -28z" />
<glyph unicode="&#xf4;" horiz-adv-x="1101" d="M92 551q0 -123 29 -227.5t85 -181t142 -119.5t203 -43t203 43t142 119.5t85 181t29 227.5t-28 228.5t-85 182t-143 119.5t-203 43t-203 -43t-142 -119.5t-85 -182t-29 -228.5zM262 1272l70 -62l219 160l219 -160l70 62l-209 211q-33 35 -80 35t-80 -35zM340 553 q0 80 8 153.5t30.5 132t64.5 93.5t108 35q68 0 108.5 -35t63 -93.5t31 -132t8.5 -153.5q0 -78 -8.5 -150.5t-31 -129t-63.5 -90t-108 -33.5q-66 0 -107 33.5t-63.5 90t-31.5 129t-9 150.5z" />
<glyph unicode="&#xf5;" horiz-adv-x="1101" d="M92 551q0 -123 29 -227.5t85 -181t142 -119.5t203 -43t203 43t142 119.5t85 181t29 227.5t-28 228.5t-85 182t-143 119.5t-203 43t-203 -43t-142 -119.5t-85 -182t-29 -228.5zM242 1337l57 -112q14 33 41 62.5t78 33.5q37 4 69.5 -10.5t66.5 -30.5t69.5 -29.5t81.5 -7.5 q66 8 100.5 37t50.5 72l-63 114q-12 -35 -39 -62.5t-78 -31.5q-37 -4 -69 10.5t-64.5 31t-67.5 29.5t-80 9q-66 -6 -100.5 -38t-52.5 -77zM340 553q0 80 8 153.5t30.5 132t64.5 93.5t108 35q68 0 108.5 -35t63 -93.5t31 -132t8.5 -153.5q0 -78 -8.5 -150.5t-31 -129 t-63.5 -90t-108 -33.5q-66 0 -107 33.5t-63.5 90t-31.5 129t-9 150.5z" />
<glyph unicode="&#xf6;" horiz-adv-x="1101" d="M92 551q0 -123 29 -227.5t85 -181t142 -119.5t203 -43t203 43t142 119.5t85 181t29 227.5t-28 228.5t-85 182t-143 119.5t-203 43t-203 -43t-142 -119.5t-85 -182t-29 -228.5zM250 1354q0 -45 34.5 -76t82.5 -31q47 0 81.5 31t34.5 76t-34.5 74.5t-81.5 29.5t-82 -29.5 t-35 -74.5zM340 553q0 80 8 153.5t30.5 132t64.5 93.5t108 35q68 0 108.5 -35t63 -93.5t31 -132t8.5 -153.5q0 -78 -8.5 -150.5t-31 -129t-63.5 -90t-108 -33.5q-66 0 -107 33.5t-63.5 90t-31.5 129t-9 150.5zM618 1354q0 -45 34 -76t81 -31t83 31t36 76t-36 74.5t-83 29.5 t-81 -29.5t-34 -74.5z" />
<glyph unicode="&#xf7;" d="M156 614h807v129h-807v-129zM440 350q0 -49 35 -83t84 -34q47 0 82 34t35 83t-35 84t-82 35q-49 0 -84 -35t-35 -84zM440 1008q0 -49 35 -83t84 -34q47 0 82 34t35 83t-35 83.5t-82 34.5q-49 0 -84 -34.5t-35 -83.5z" />
<glyph unicode="&#xf8;" horiz-adv-x="1110" d="M92 551q0 -141 39 -257t117 -194l-101 -172l64 -34l94 161q100 -76 250 -75q117 0 203 43t144.5 119.5t87 181t28.5 227.5q0 145 -41 263t-121 196l96 164l-63 36l-90 -157q-49 35 -109.5 53t-136.5 18q-115 0 -202 -43t-144 -119.5t-86 -182t-29 -228.5zM322 555 q0 80 10 158t36.5 138t71.5 98t115 38q53 0 91 -22.5t67 -61.5l-351 -602q-23 53 -31.5 120.5t-8.5 133.5zM397 217l348 602q25 -57 33 -126.5t8 -137.5q0 -80 -10 -155.5t-35.5 -135t-70.5 -95.5t-115 -36q-53 0 -91 22.5t-67 61.5z" />
<glyph unicode="&#xf9;" d="M133 350q0 -184 102.5 -278.5t325.5 -94.5q145 0 249.5 26t174.5 63v1038h-250v-918q-33 -18 -72.5 -27t-93.5 -9q-98 0 -142 54t-44 132v768h-250v-754zM299 1503l248 -282h139l-141 288q-31 18 -71 27.5t-77 9.5q-35 0 -62.5 -10t-35.5 -33z" />
<glyph unicode="&#xfa;" d="M133 350q0 -184 102.5 -278.5t325.5 -94.5q145 0 249.5 26t174.5 63v1038h-250v-918q-33 -18 -72.5 -27t-93.5 -9q-98 0 -142 54t-44 132v768h-250v-754zM461 1221h139l248 282q-8 23 -36 33t-64 10q-35 0 -75 -9t-71 -28z" />
<glyph unicode="&#xfb;" d="M133 350q0 -184 102.5 -278.5t325.5 -94.5q145 0 249.5 26t174.5 63v1038h-250v-918q-33 -18 -72.5 -27t-93.5 -9q-98 0 -142 54t-44 132v768h-250v-754zM272 1272l68 -62l221 160l217 -160l70 62l-209 211q-33 35 -80 35t-80 -35z" />
<glyph unicode="&#xfc;" d="M133 350q0 -184 102.5 -278.5t325.5 -94.5q145 0 249.5 26t174.5 63v1038h-250v-918q-33 -18 -72.5 -27t-93.5 -9q-98 0 -142 54t-44 132v768h-250v-754zM258 1354q0 -45 35 -76t82 -31t82 31t35 76t-35 74.5t-82 29.5t-82 -29.5t-35 -74.5zM627 1354q0 -45 33.5 -76 t82.5 -31q47 0 82 31t35 76t-34.5 74.5t-82.5 29.5q-49 0 -82.5 -29.5t-33.5 -74.5z" />
<glyph unicode="&#xfd;" horiz-adv-x="1034" d="M43 1104l367 -1104l-185 -440h267l503 1544h-235l-228 -825h-4l-219 825h-266zM426 1221h139l248 282q-8 23 -35.5 33t-64.5 10q-35 0 -75 -9t-71 -28z" />
<glyph unicode="&#xfe;" horiz-adv-x="1126" d="M133 -440h250v448q70 -20 158 -20q104 0 194 40t156.5 114.5t104.5 184.5t38 251q0 129 -32.5 230t-93 170t-145.5 105.5t-190 36.5q-51 0 -102 -12t-90 -33v533h-248v-2048zM383 152v792q61 29 129 29q147 0 210.5 -108.5t63.5 -307.5q0 -86 -15 -163t-50 -134 t-91.5 -91t-137.5 -34q-29 0 -57.5 5t-51.5 12z" />
<glyph unicode="&#xff;" horiz-adv-x="1034" d="M43 1104l367 -1104l-185 -440h267l503 1544h-235l-228 -825h-4l-219 825h-266zM231 1354q0 -45 35 -76t82 -31t82 31t35 76t-35 74.5t-82 29.5t-82 -29.5t-35 -74.5zM600 1354q0 -45 34 -76t81 -31t83 31t36 76t-36 74.5t-83 29.5t-81 -29.5t-34 -74.5z" />
<glyph unicode="&#x152;" horiz-adv-x="1568" d="M100 705q0 -160 35 -293t106.5 -229.5t179 -149.5t255.5 -53q53 0 98 6t72 14h635v176h-426v461h379v172h-379v426h426v174h-635q-29 8 -75 14.5t-97 6.5q-147 0 -255 -53.5t-178.5 -148.5t-105.5 -229.5t-35 -293.5zM367 709q0 96 12 195.5t47 180t97.5 132t162.5 51.5 q37 0 69.5 -5.5t55.5 -11.5v-1085q-18 -4 -51 -8t-74 -4q-98 0 -160.5 50t-97.5 130t-48 178t-13 197z" />
<glyph unicode="&#x153;" horiz-adv-x="1738" d="M92 551q0 -123 27.5 -227.5t85 -181t142.5 -119.5t200 -43q117 0 198.5 58t128.5 163q57 -115 152.5 -168t216.5 -53q145 0 225 22.5t140 54.5l-60 156q-47 -27 -111.5 -44t-162.5 -17q-47 0 -95.5 11t-89 45t-71.5 96.5t-41 166.5l668 80q4 289 -108 431t-333 142 q-100 0 -190 -48t-146 -152q-55 102 -133 151t-188 49q-115 0 -200 -43t-141 -119.5t-85 -182t-29 -228.5zM334 555q0 70 7 142.5t29.5 132t64.5 98.5t112 39q72 0 113.5 -38t63 -98.5t28 -133t6.5 -142.5q0 -68 -6.5 -139.5t-29 -131t-64.5 -97t-111 -37.5q-68 0 -110 37.5 t-65.5 96t-30.5 131t-7 140.5zM963 600q-6 195 60.5 287t168.5 92t160.5 -77t58.5 -249z" />
<glyph unicode="&#x178;" horiz-adv-x="1054" d="M18 1409l379 -801v-608h260v608l383 801h-245l-250 -584h-4l-242 584h-281zM240 1642q0 -45 33.5 -74.5t80.5 -29.5t83 29.5t36 74.5t-36 76t-83 31t-80.5 -30.5t-33.5 -76.5zM608 1642q0 -45 34 -74.5t81 -29.5t82 29.5t35 74.5t-35 76t-82 31t-81 -30.5t-34 -76.5z" />
<glyph unicode="&#x2c6;" horiz-adv-x="454" d="M-61 1272l69 -62l219 160l219 -160l70 62l-209 211q-33 35 -80 35t-80 -35z" />
<glyph unicode="&#x2dc;" horiz-adv-x="454" d="M-80 1337l60 -112q12 33 38.5 62.5t77.5 33.5q37 4 71 -10.5t66.5 -30.5t69.5 -29.5t80 -7.5q66 8 101 37t51 72l-62 114q-14 -35 -40.5 -62.5t-78.5 -31.5q-37 -4 -68.5 10.5t-63.5 31t-67.5 29.5t-80.5 9q-66 -6 -99.5 -38t-54.5 -77z" />
<glyph unicode="&#x2000;" horiz-adv-x="926" />
<glyph unicode="&#x2001;" horiz-adv-x="1853" />
<glyph unicode="&#x2002;" horiz-adv-x="926" />
<glyph unicode="&#x2003;" horiz-adv-x="1853" />
<glyph unicode="&#x2004;" horiz-adv-x="617" />
<glyph unicode="&#x2005;" horiz-adv-x="463" />
<glyph unicode="&#x2006;" horiz-adv-x="308" />
<glyph unicode="&#x2007;" horiz-adv-x="308" />
<glyph unicode="&#x2008;" horiz-adv-x="231" />
<glyph unicode="&#x2009;" horiz-adv-x="370" />
<glyph unicode="&#x200a;" horiz-adv-x="102" />
<glyph unicode="&#x2010;" horiz-adv-x="716" d="M109 594h499v190h-499v-190z" />
<glyph unicode="&#x2011;" horiz-adv-x="716" d="M109 594h499v190h-499v-190z" />
<glyph unicode="&#x2012;" horiz-adv-x="716" d="M109 594h499v190h-499v-190z" />
<glyph unicode="&#x2013;" horiz-adv-x="839" d="M0 608h840v158h-840v-158z" />
<glyph unicode="&#x2014;" horiz-adv-x="1679" d="M0 618h1679v136h-1679v-136z" />
<glyph unicode="&#x2018;" horiz-adv-x="587" d="M102 1059q4 -25 24.5 -48.5t70.5 -23.5q55 0 90 21.5t55 50.5l174 549h-129z" />
<glyph unicode="&#x2019;" horiz-adv-x="587" d="M72 997h129l284 549q-6 27 -26.5 49.5t-69.5 22.5q-53 0 -88 -21.5t-55 -50.5z" />
<glyph unicode="&#x201a;" horiz-adv-x="587" d="M72 -346h129l284 549q-6 25 -26.5 48t-67.5 23q-55 0 -90 -21.5t-55 -49.5z" />
<glyph unicode="&#x201c;" horiz-adv-x="987" d="M102 1059q4 -25 24.5 -48.5t70.5 -23.5q55 0 90 21.5t55 50.5l174 549h-129zM504 1059q4 -25 24.5 -48.5t69.5 -23.5q53 0 89 21.5t56 50.5l172 549h-129z" />
<glyph unicode="&#x201d;" horiz-adv-x="987" d="M72 997h129l284 549q-6 27 -26.5 49.5t-69.5 22.5q-53 0 -88 -21.5t-55 -50.5zM473 997h127l285 549q-4 27 -24.5 49.5t-69.5 22.5q-53 0 -89 -21.5t-57 -50.5z" />
<glyph unicode="&#x201e;" horiz-adv-x="987" d="M72 -346h129l284 549q-6 25 -26.5 48t-69.5 23q-53 0 -88 -21.5t-55 -49.5zM473 -346h127l285 549q-4 25 -24.5 48t-69.5 23q-53 0 -89 -21.5t-57 -49.5z" />
<glyph unicode="&#x2022;" horiz-adv-x="733" d="M125 735q0 -49 19.5 -93t52 -77t76.5 -52t94 -19q49 0 93 19t76.5 52t52 77t19.5 93q0 51 -19.5 95t-52 77t-76.5 51.5t-93 18.5t-93.5 -18.5t-77 -51.5t-52 -77t-19.5 -95z" />
<glyph unicode="&#x2026;" horiz-adv-x="1808" d="M152 137q0 -61 44 -105t105 -44q63 0 106.5 44t43.5 105q0 63 -43 106.5t-107 43.5q-61 0 -105 -43t-44 -107zM754 137q0 -61 44 -105t107 -44q61 0 105.5 44t44.5 105q0 63 -44 106.5t-106 43.5q-63 0 -107 -43t-44 -107zM1358 137q0 -61 44 -105t105 -44t105.5 44 t44.5 105q0 63 -44 106.5t-106 43.5q-61 0 -105 -43t-44 -107z" />
<glyph unicode="&#x202f;" horiz-adv-x="370" />
<glyph unicode="&#x2039;" horiz-adv-x="675" d="M102 684l308 -465l135 82l-252 383l252 383l-135 82z" />
<glyph unicode="&#x203a;" horiz-adv-x="675" d="M131 301l135 -82l307 465l-307 465l-135 -82l250 -383z" />
<glyph unicode="&#x205f;" horiz-adv-x="463" />
<glyph unicode="&#x2122;" horiz-adv-x="1601" d="M84 1313h195v-611h127v611h192v96h-514v-96zM629 702h125l65 578l174 -578h119l172 578l68 -578h125l-97 707h-170l-155 -567l-160 567h-168z" />
<glyph unicode="&#x25fc;" horiz-adv-x="1105" d="M0 0v1106h1106v-1106h-1106z" />
<glyph unicode="&#xfb01;" horiz-adv-x="1161" d="M74 944h123v-944h249v944h183v160h-183v158q0 106 50.5 145t132.5 41v160q-205 16 -318.5 -84.5t-113.5 -286.5v-133h-123v-160zM754 1417q0 -49 40 -85t99 -36q57 0 97 36t40 85q0 51 -40 87t-97 36q-59 0 -99 -36t-40 -87zM768 1104l2 -1104h248v1104h-250z" />
<glyph unicode="&#xfb02;" horiz-adv-x="1171" d="M74 944h123v-944h249v944h183v160h-183v158q0 106 50.5 145t132.5 41v160q-205 16 -318.5 -84.5t-113.5 -286.5v-133h-123v-160zM778 0h250v1608h-250v-1608z" />
</font>
</defs>
</svg>
